<?xml version="1.0" standalone="no"?>
<!DOCTYPE svg PUBLIC "-//W3C//DTD SVG 20010904//EN"
 "http://www.w3.org/TR/2001/REC-SVG-20010904/DTD/svg10.dtd">
<svg version="1.0" xmlns="http://www.w3.org/2000/svg"
 width="1024.000000pt" height="1024.000000pt" viewBox="0 0 1024.000000 1024.000000"
 preserveAspectRatio="xMidYMid meet">

<g transform="translate(0.000000,1024.000000) scale(0.100000,-0.100000)"
fill="#000000" stroke="none">
<path d="M4890 9560 c-109 -30 -220 -86 -397 -201 -291 -189 -364 -219 -530
-219 -59 0 -184 7 -278 15 -295 25 -411 18 -562 -37 -149 -54 -289 -161 -385
-294 -79 -111 -108 -169 -108 -219 0 -84 74 -150 159 -142 60 6 86 29 159 138
177 264 299 307 757 264 276 -26 397 -18 545 32 97 33 168 72 371 204 263 172
353 206 519 196 147 -8 209 -35 485 -215 340 -220 483 -256 876 -218 331 32
466 19 584 -55 124 -77 189 -167 359 -490 54 -102 121 -216 148 -253 83 -110
216 -207 408 -295 362 -167 427 -206 508 -303 48 -57 70 -97 98 -173 16 -43
19 -99 25 -420 6 -339 8 -376 28 -443 33 -111 87 -211 236 -431 182 -272 210
-330 222 -468 13 -157 -40 -285 -225 -548 -164 -232 -214 -336 -248 -514 -14
-73 -16 -130 -10 -366 7 -320 1 -369 -60 -495 -28 -57 -57 -94 -118 -155 -86
-85 -171 -135 -406 -240 -154 -69 -253 -131 -341 -213 -98 -92 -129 -139 -259
-392 -58 -113 -126 -237 -153 -276 -58 -89 -158 -183 -229 -218 -124 -60 -220
-68 -552 -46 -385 25 -486 -4 -846 -240 -311 -204 -376 -232 -540 -233 -169 0
-277 43 -530 213 -268 179 -372 229 -533 255 -108 17 -218 19 -377 5 -157 -15
-355 -15 -415 -1 -78 19 -169 67 -230 122 -68 63 -137 173 -256 410 -195 390
-253 445 -686 650 -299 142 -404 236 -475 425 -22 57 -23 71 -23 429 -1 352
-2 373 -23 443 -35 115 -98 230 -254 462 -163 244 -196 315 -205 446 -12 164
33 280 199 519 184 266 228 345 264 480 17 62 19 110 19 425 0 337 1 358 21
410 56 148 129 229 292 329 113 70 132 93 132 166 0 81 -59 135 -147 135 -43
0 -148 -50 -228 -108 -173 -126 -288 -289 -341 -487 -17 -62 -19 -108 -19
-410 0 -442 12 -399 -206 -725 -143 -213 -209 -337 -245 -455 -25 -81 -28
-106 -28 -240 -1 -240 34 -330 262 -672 230 -345 216 -296 217 -758 1 -339 2
-365 23 -440 44 -160 140 -314 258 -411 94 -79 173 -125 405 -237 130 -63 257
-132 286 -155 78 -63 120 -124 256 -383 69 -130 142 -263 162 -295 147 -230
354 -356 624 -380 52 -4 179 0 347 12 391 27 415 20 747 -198 238 -157 306
-194 424 -232 222 -70 455 -53 669 48 50 24 176 101 280 171 338 229 387 243
754 210 209 -19 296 -19 403 0 182 32 326 104 448 226 89 88 146 177 276 424
60 116 122 229 137 253 74 118 160 180 411 296 201 93 289 142 370 207 172
136 269 289 310 484 14 67 16 131 13 400 -3 347 0 375 52 490 15 33 92 157
172 275 223 331 262 430 263 660 0 111 -4 149 -23 215 -36 125 -100 246 -248
466 -152 227 -198 315 -214 410 -6 41 -8 161 -4 334 7 292 1 360 -42 488 -35
104 -85 186 -166 272 -103 111 -183 167 -348 247 -80 39 -199 97 -265 129
-215 104 -264 159 -434 479 -132 249 -180 321 -271 410 -206 201 -421 255
-852 216 -403 -37 -441 -27 -803 199 -317 198 -366 216 -605 221 -142 3 -175
1 -240 -16z"/>
<path d="M2362 8190 c-51 -31 -74 -76 -69 -136 11 -150 179 -194 271 -70 30
40 29 120 -3 165 -43 60 -136 79 -199 41z"/>
<path d="M3265 8025 c-102 -51 -105 -217 -5 -267 33 -17 142 -18 1855 -18
1753 0 1822 1 1855 19 49 26 72 62 77 118 5 59 -18 108 -66 140 l-34 23 -1826
0 c-1596 0 -1830 -2 -1856 -15z"/>
<path d="M4880 7202 c-210 -55 -312 -226 -254 -422 12 -42 29 -67 77 -115 68
-67 113 -91 258 -141 205 -69 269 -117 269 -200 0 -55 -21 -89 -72 -115 -85
-43 -235 -34 -380 23 -91 36 -114 32 -141 -25 -21 -44 -22 -86 -1 -115 57 -82
358 -138 527 -98 125 29 214 89 262 177 25 46 30 68 33 147 4 88 3 96 -27 156
-50 102 -134 159 -347 234 -139 49 -192 78 -221 121 -46 67 -18 147 64 183 65
29 199 21 298 -16 39 -15 78 -30 87 -33 48 -15 92 29 104 106 5 33 2 41 -21
59 -97 76 -361 114 -515 74z"/>
<path d="M2450 7190 c-20 -20 -20 -33 -20 -590 0 -557 0 -570 20 -590 19 -19
33 -20 209 -20 206 0 291 11 403 54 127 47 241 143 301 254 62 115 85 310 52
451 -38 161 -154 305 -306 380 -125 62 -231 81 -456 81 -170 0 -184 -1 -203
-20z m425 -191 c216 -40 351 -241 316 -471 -34 -222 -191 -338 -457 -338 l-84
0 0 410 0 410 83 0 c46 0 110 -5 142 -11z"/>
<path d="M3652 7187 l-22 -23 0 -567 c0 -554 0 -567 20 -587 19 -19 33 -20
398 -20 207 0 382 4 388 8 35 23 47 129 18 170 -15 22 -17 22 -305 22 -159 0
-289 3 -289 8 0 4 -3 76 -6 160 l-6 152 260 0 c297 0 283 -4 290 90 4 49 1 61
-17 79 -20 20 -30 21 -270 21 l-249 0 -6 103 c-3 56 -6 126 -5 155 l1 52 289
0 c340 0 329 -3 329 100 0 106 23 100 -418 100 l-379 0 -21 -23z"/>
<path d="M5705 7185 l-25 -24 0 -564 0 -564 23 -21 c22 -21 32 -22 194 -22 95
0 205 5 247 10 321 45 518 250 533 555 11 227 -78 420 -248 536 -128 87 -272
119 -531 119 -166 0 -169 0 -193 -25z m483 -199 c174 -64 275 -230 259 -430
-18 -238 -178 -365 -459 -366 l-88 0 0 411 0 412 123 -6 c73 -3 139 -11 165
-21z"/>
<path d="M6925 7185 l-25 -24 0 -566 c0 -552 0 -565 20 -585 19 -19 33 -20
400 -20 446 0 420 -6 420 104 0 99 11 96 -332 96 l-288 0 0 160 0 160 259 0
c257 0 260 0 275 22 10 14 16 44 16 79 0 91 7 89 -293 89 l-257 0 0 155 0 155
293 0 c285 0 294 1 313 21 14 15 19 36 19 81 0 102 19 98 -422 98 l-374 0 -24
-25z"/>
<path d="M2671 5605 c-85 -19 -202 -75 -262 -126 -39 -32 -49 -47 -49 -71 0
-40 36 -112 77 -156 41 -43 68 -40 155 19 154 105 353 106 468 2 64 -58 84
-110 78 -203 -10 -133 -66 -218 -343 -515 -205 -221 -420 -459 -438 -485 -13
-18 -17 -46 -17 -110 0 -138 -60 -125 559 -125 l530 0 23 23 c20 20 23 32 23
106 0 135 28 126 -383 126 l-344 0 63 71 c402 449 480 542 552 661 53 88 69
147 74 271 5 93 2 117 -17 178 -28 87 -90 173 -162 227 -65 48 -94 63 -178 92
-86 29 -312 37 -409 15z"/>
<path d="M4280 5604 c-373 -97 -578 -544 -505 -1101 49 -369 235 -623 511
-693 147 -38 317 -19 452 49 278 141 439 523 402 959 -36 419 -234 711 -535
787 -75 19 -251 19 -325 -1z m291 -275 c100 -43 196 -183 240 -351 11 -43 22
-127 26 -205 13 -276 -47 -495 -172 -619 -43 -44 -64 -56 -125 -75 -230 -69
-406 96 -465 435 -31 180 -13 420 41 564 87 233 267 332 455 251z"/>
<path d="M5902 5606 c-212 -54 -388 -232 -471 -478 -49 -143 -64 -265 -58
-461 6 -190 21 -274 71 -409 45 -118 88 -188 174 -279 116 -122 233 -176 408
-186 404 -23 680 277 724 790 27 315 -47 618 -197 805 -81 101 -154 154 -269
198 -59 23 -88 27 -199 30 -86 2 -148 -1 -183 -10z m296 -287 c154 -75 256
-319 256 -614 0 -254 -58 -439 -175 -556 -60 -60 -118 -82 -214 -83 -67 0 -89
5 -137 28 -175 85 -271 344 -255 685 20 436 251 673 525 540z"/>
<path d="M7380 5582 c-19 -10 -117 -66 -216 -126 -121 -72 -186 -116 -193
-133 -9 -20 -7 -37 13 -95 14 -38 33 -79 43 -90 30 -33 83 -19 211 56 62 36
115 66 118 66 2 0 4 -308 4 -684 0 -376 3 -692 6 -701 12 -31 60 -45 149 -45
89 0 137 14 149 45 3 9 6 390 6 846 l0 830 -25 24 c-22 23 -31 25 -127 25 -80
0 -112 -4 -138 -18z"/>
<path d="M3260 3311 c-76 -40 -99 -147 -46 -216 54 -70 -92 -65 1900 -65 2034
0 1864 -7 1913 77 44 76 20 166 -58 205 -32 17 -141 18 -1854 18 -1757 0
-1822 -1 -1855 -19z"/>
</g>
</svg>
