<?xml version="1.0" encoding="UTF-8"?>
<svg version="1.1" xmlns="http://www.w3.org/2000/svg" width="512" height="512">
<path d="M0 0 C1.37094406 -0.00461652 2.74188317 -0.01097446 4.11281204 -0.01890898 C7.85637146 -0.03552261 11.59952012 -0.02739265 15.34308052 -0.0149641 C19.38951447 -0.00588305 23.43587968 -0.01989843 27.4822998 -0.03088379 C35.3998776 -0.0486411 43.31730345 -0.04484149 51.23488712 -0.03323323 C57.67145595 -0.02418818 64.1079823 -0.02297953 70.54455566 -0.02732849 C71.92032237 -0.02824789 71.92032237 -0.02824789 73.32388234 -0.02918586 C75.1872937 -0.0304648 77.05070505 -0.03176166 78.91411638 -0.03307623 C96.37450286 -0.04447386 113.83480525 -0.03138115 131.29517794 -0.00987476 C146.26681437 0.00799548 161.23832674 0.00489114 176.20996094 -0.0135498 C193.60920122 -0.03497096 211.00836785 -0.0433753 228.40761948 -0.03110075 C230.26405588 -0.0298266 232.12049229 -0.02856911 233.97692871 -0.02732849 C234.89025632 -0.02671139 235.80358393 -0.02609429 236.74458814 -0.02545848 C243.17109274 -0.02200932 249.5975505 -0.02782458 256.02404785 -0.0372467 C263.85916843 -0.0484819 271.69412878 -0.04539472 279.52923107 -0.02412373 C283.52445478 -0.01363372 287.51941163 -0.00945628 291.51463318 -0.02272034 C295.17631386 -0.03469291 298.83748185 -0.02800255 302.49911642 -0.00681013 C304.44177029 -0.00026843 306.38446011 -0.0132366 308.32707596 -0.02703905 C318.93341875 0.06750183 326.83975213 2.42876933 334.58105469 9.79699707 C344.74047252 20.14542732 344.84134262 31.36175772 344.76867676 45.10656738 C344.77328923 47.00548404 344.77964448 48.90439712 344.78758574 50.80330276 C344.80425446 56.00622479 344.79604377 61.20885262 344.78364086 66.41177559 C344.77458269 72.02876891 344.78856392 77.645712 344.79956055 83.26269531 C344.8173421 94.26038331 344.81350736 105.25796207 344.80190998 116.25565434 C344.79287453 125.19412698 344.79165216 134.13256902 344.79600525 143.07104492 C344.79661818 144.34346896 344.79723111 145.61589301 344.79786262 146.92687535 C344.79914153 149.51182271 344.80043838 152.09677006 344.80175298 154.6817174 C344.81283265 178.22697383 344.80134482 201.7721571 344.7803826 225.31740123 C344.76140082 246.80151715 344.76309936 268.28553823 344.78222656 289.76965332 C344.80365514 313.91931848 344.8120591 338.06891621 344.79977751 362.2185936 C344.79850332 364.7940038 344.79724584 367.369414 344.79600525 369.94482422 C344.7950796 371.84552481 344.7950796 371.84552481 344.79413524 373.78462338 C344.79068231 382.71181592 344.79650949 391.63897479 344.80592346 400.56616211 C344.81714462 411.4462032 344.81410081 422.32612886 344.79280049 433.20615673 C344.78229178 438.75676005 344.77816538 444.30717095 344.79139709 449.85777283 C344.80333025 454.9405267 344.79674292 460.02291006 344.77548689 465.1056304 C344.77102478 466.94264024 344.77327827 468.77968149 344.78299004 470.61667109 C344.84478025 483.2771363 344.05699073 493.28292028 334.97167969 502.82824707 C328.16828046 509.5073833 320.50085133 512.921813 310.91641486 513.04290819 C310.04557175 513.0339853 309.17472863 513.02506242 308.27749634 513.01586914 C307.32439021 513.0221091 306.37128407 513.02834907 305.38929594 513.03477812 C302.22330239 513.0506226 299.05808791 513.03813753 295.89208984 513.0255127 C293.61141514 513.03093738 291.33074394 513.03806198 289.05007935 513.04675293 C282.87695819 513.06494158 276.7041053 513.05793866 270.53097963 513.04523659 C264.06795828 513.03509329 257.60495953 513.04450528 251.14193726 513.05078125 C239.6021732 513.05851583 228.06254619 513.04611156 216.52280359 513.0257439 C206.05990133 513.00784912 195.59717646 513.01100068 185.13427734 513.02941895 C172.97149211 513.05081967 160.80884599 513.05879791 148.64603841 513.04696989 C142.21180356 513.04072872 135.77769094 513.03991726 129.3434639 513.05311584 C123.30064304 513.06464698 117.25815842 513.0566985 111.21537399 513.03353882 C108.9949474 513.02823853 106.77449262 513.02978792 104.55407715 513.03858948 C101.52969476 513.04947533 98.50639881 513.03586562 95.48208618 513.01586914 C94.59785874 513.02479203 93.7136313 513.03371491 92.80260909 513.04290819 C86.87689805 512.9665931 86.87689805 512.9665931 83.71761131 510.61486053 C81.5766291 507.51856937 81.70154775 505.29329949 81.87011719 501.63293457 C82.26074219 499.50793457 82.26074219 499.50793457 84.01074219 497.00793457 C88.70262215 493.88001459 93.77588491 494.36550123 99.24325562 494.37663269 C100.1612392 494.37451698 101.07922279 494.37240126 102.02502406 494.37022144 C105.10800322 494.36421911 108.19094148 494.36522175 111.27392578 494.36608887 C113.48150197 494.36305756 115.68907753 494.35953619 117.89665222 494.3555603 C122.65422002 494.34766932 127.41178031 494.34252566 132.16935349 494.33926964 C139.69045054 494.33336337 147.21150018 494.31682713 154.73257446 494.29792786 C157.3064861 494.29159047 159.88039777 494.28526485 162.45430946 494.27895069 C163.74333144 494.27578488 165.03235343 494.27261907 166.36043668 494.26935732 C173.02804905 494.25332942 179.6956637 494.23865233 186.36328125 494.22497559 C187.36685993 494.22291178 187.36685993 494.22291178 188.39071293 494.22080628 C199.23400117 494.19887384 210.07727774 494.18811911 220.92058425 494.18060484 C232.05592864 494.17253254 243.19118623 494.14897506 254.32647765 494.11265117 C260.57754593 494.09286478 266.82843864 494.08049459 273.07954025 494.08548546 C278.95814186 494.09012182 284.8364104 494.07638156 290.71494484 494.04847336 C292.87324366 494.04154488 295.03157679 494.04145273 297.18987465 494.04867363 C300.13506866 494.05753261 303.07915735 494.04191566 306.02426147 494.02018738 C306.87951931 494.02862992 307.73477715 494.03707245 308.6159519 494.04577082 C313.9592797 493.9728134 317.0971677 493.1578453 321.26074219 489.50793457 C324.93347158 484.93642657 325.83955742 481.42377435 325.76410675 475.69612122 C325.7728274 474.53865051 325.7728274 474.53865051 325.78172421 473.35779655 C325.79633788 470.76860899 325.78243297 468.18036738 325.76867676 465.59118652 C325.77328514 463.71762005 325.77963763 461.84405718 325.78758574 459.9705019 C325.80431081 454.819229 325.79601819 449.66825186 325.78364086 444.51697779 C325.77460572 438.9627038 325.78855247 433.40848134 325.79956055 427.85421753 C325.81736676 416.97229314 325.8134964 406.09047897 325.80190998 395.20855021 C325.79288421 386.36624797 325.79164795 377.52397667 325.79600525 368.68167114 C325.79692465 366.79546805 325.79692465 366.79546805 325.79786262 364.87115985 C325.79914149 362.31680543 325.80043835 359.76245102 325.80175298 357.20809662 C325.81283949 333.92741859 325.80133347 310.64680515 325.7803826 287.3661408 C325.76139998 266.1109643 325.76309848 244.85588366 325.78222656 223.60070801 C325.80364234 199.72359372 325.81206625 175.84653232 325.79977751 151.96940517 C325.79850328 149.42433612 325.7972458 146.87926707 325.79600525 144.334198 C325.79538815 143.08190614 325.79477104 141.82961427 325.79413524 140.53937417 C325.79067848 131.70552715 325.79651772 122.87171408 325.80592346 114.03787231 C325.8171305 103.27546431 325.81413064 92.51317303 325.79280049 81.75077844 C325.78227268 76.25740524 325.77819778 70.7642268 325.79139709 65.27085495 C325.80329088 60.2448951 325.79680817 55.21931109 325.77548689 50.19338548 C325.77100803 48.37247794 325.77331574 46.55153884 325.78299004 44.7306515 C325.79511303 42.25989567 325.78272147 39.79043558 325.76410675 37.31974792 C325.77347142 36.60885226 325.78283608 35.8979566 325.79248452 35.16551864 C325.71698489 30.16905565 324.34936513 27.37947762 321.26074219 23.50793457 C315.72728423 18.18059063 309.43470202 18.94825132 302.20336914 19 C300.85777518 18.99538912 299.51218626 18.98903493 298.16660786 18.98109102 C294.47469714 18.96439995 290.78320025 18.9726428 287.09128809 18.9850359 C283.10757303 18.99408507 279.12392919 18.98011734 275.14022827 18.96911621 C267.33841379 18.95132495 259.53675319 18.95517365 251.73493266 18.96676677 C245.39453413 18.97579844 239.05417875 18.97702625 232.71377563 18.97267151 C231.3604419 18.97175211 231.3604419 18.97175211 229.9797681 18.97081414 C228.14694968 18.96953524 226.31413127 18.96823839 224.48131287 18.96692377 C207.2928938 18.9555162 190.10456006 18.96863446 172.91615498 18.99012524 C158.1660658 19.00799638 143.41610253 19.00489233 128.66601562 18.9864502 C111.53932083 18.96504662 94.41270083 18.95661485 77.28599453 18.96889925 C75.45989928 18.97017345 73.63380401 18.97143094 71.80770874 18.97267151 C70.45998012 18.97359716 70.45998012 18.97359716 69.08502465 18.97454152 C62.75186545 18.97799595 56.41875367 18.97216405 50.08560181 18.9627533 C42.36811385 18.95153763 34.65078863 18.95456422 26.93331933 18.97587627 C22.99532504 18.98639257 19.05760215 18.99049881 15.11960983 18.97727966 C11.5147213 18.96536165 7.91035577 18.97190792 4.30551469 18.99318987 C2.38357354 18.9997757 0.4615961 18.98671442 -1.46030712 18.97296095 C-9.8518396 19.01447949 -9.8518396 19.01447949 -16.73925781 23.50793457 C-20.20139006 27.71311609 -21.23946313 30.55355553 -21.24478149 35.96632385 C-21.25580399 37.24629745 -21.26682648 38.52627106 -21.27818298 39.84503174 C-21.2702814 41.25097859 -21.2620142 42.65692343 -21.25341797 44.06286621 C-21.2588819 45.5531639 -21.26612515 47.04345596 -21.27500916 48.53373718 C-21.29032201 51.73567836 -21.29315852 54.93729922 -21.28624344 58.13926888 C-21.27544356 63.20299395 -21.29285408 68.2663851 -21.3140564 73.33006287 C-21.34429491 81.33855549 -21.35600924 89.34694898 -21.35963285 97.35549396 C-21.36628478 111.69988198 -21.39529425 126.04420136 -21.44472921 140.38850492 C-21.46122203 145.42161737 -21.46664498 150.45458565 -21.46313882 155.48772252 C-21.46270164 158.61821753 -21.47026814 161.74865813 -21.47981453 164.87913704 C-21.48249601 166.32995382 -21.4817478 167.78078163 -21.47730446 169.23159409 C-21.47165527 171.21323401 -21.4793494 173.19489855 -21.48770142 175.17652893 C-21.4880369 176.28502732 -21.48837238 177.39352571 -21.48871803 178.53561497 C-21.82330134 182.50499871 -22.69643031 185.38786058 -25.42675781 188.32043457 C-28.78230785 190.04355486 -31.01943146 190.03001546 -34.73925781 189.50793457 C-37.92456752 186.98785843 -39.53971726 185.48104204 -40.3656702 181.45308399 C-40.36625651 180.30553481 -40.36684282 179.15798563 -40.3674469 177.97566223 C-40.37454129 177.33324449 -40.38163567 176.69082675 -40.38894504 176.02894181 C-40.40649857 173.88371039 -40.38843673 171.74029751 -40.37036133 169.59509277 C-40.3755015 168.05394162 -40.38278352 166.51279634 -40.39204407 164.97166443 C-40.41056193 160.78938296 -40.39761429 156.60773891 -40.37795377 152.42548394 C-40.36155424 148.04192391 -40.37038266 143.65840386 -40.37547302 139.27482605 C-40.37999492 131.90817102 -40.36412418 124.54176979 -40.33618164 117.1751709 C-40.30418868 108.67558215 -40.30412206 100.17645264 -40.32139641 91.67683154 C-40.33730458 83.48675335 -40.33049658 75.29684243 -40.3134594 67.10677147 C-40.30661198 63.62892352 -40.3075977 60.15121058 -40.31500435 56.67336464 C-40.32270967 52.56836557 -40.31040386 48.46388366 -40.28315544 44.35897255 C-40.27631249 42.85866835 -40.27612935 41.35831548 -40.28337097 39.85801315 C-40.33382893 28.03472796 -38.8004943 18.960721 -30.45019531 10.18762207 C-21.47185928 1.37327391 -12.25735443 -0.08708954 0 0 Z " fill="#000000" transform="translate(167.7392578125,-0.5079345703125)"/>
<path d="M0 0 C1.5366003 -0.00668677 1.5366003 -0.00668677 3.10424304 -0.01350862 C4.80527364 -0.01323207 4.80527364 -0.01323207 6.54066849 -0.01294994 C7.73870834 -0.01662663 8.93674819 -0.02030332 10.17109227 -0.02409142 C13.50706638 -0.03323032 16.84299124 -0.03783059 20.1789732 -0.04048073 C23.77282288 -0.04437941 27.36665825 -0.05395806 30.96049881 -0.0626936 C39.64497118 -0.08247059 48.32944475 -0.09252587 57.01393402 -0.10142139 C61.10155366 -0.10580235 65.189172 -0.11116966 69.27679062 -0.11641026 C82.86154664 -0.13342392 96.44630185 -0.14791863 110.03106689 -0.155159 C113.5576439 -0.15706896 117.0842209 -0.15898928 120.61079788 -0.16094494 C121.9256017 -0.16167055 121.9256017 -0.16167055 123.26696721 -0.16241082 C137.4697856 -0.17071307 151.67251982 -0.19605264 165.87530145 -0.22852562 C180.45029539 -0.26157847 195.02524652 -0.27960616 209.60027814 -0.28280324 C217.78634054 -0.28497001 225.9722802 -0.29374293 234.15830612 -0.31926441 C241.1292763 -0.34094724 248.10009394 -0.34903382 255.07109401 -0.33929763 C258.62833855 -0.33474581 262.18526822 -0.33668977 265.74246979 -0.35605907 C269.59834852 -0.3768735 273.45379103 -0.36672818 277.30971146 -0.35352612 C278.99735772 -0.36997998 278.99735772 -0.36997998 280.71909785 -0.38676625 C286.8638823 -0.33581327 290.51955212 -0.00348655 295.17915726 4.13422108 C299.57849421 9.12806302 300.33217794 12.08450517 300.35615921 18.59393787 C300.36273041 19.36327152 300.36930161 20.13260517 300.37607193 20.92525196 C300.39582337 23.47798221 300.40747336 26.03065349 300.41743851 28.58343983 C300.42151403 29.45547361 300.42558956 30.3275074 300.42978859 31.22596645 C300.45066006 35.8440639 300.46495548 40.46213157 300.47432327 45.080266 C300.48537271 49.84399267 300.5197524 54.6072503 300.55949497 59.37081146 C300.58568305 63.03834857 300.59401719 66.70577449 300.59760475 70.37339687 C300.60246731 72.12881916 300.61407191 73.88423659 300.63264275 75.63956738 C300.65707492 78.1025957 300.65606182 80.56441841 300.64912796 83.02753162 C300.66834305 84.10715672 300.66834305 84.10715672 300.68794632 85.20859241 C300.63188285 90.69773082 299.21656888 93.72039087 296.17915726 98.13422108 C291.57364565 101.70584233 288.08689004 103.2566265 282.30332279 103.26844215 C281.29209852 103.2729 280.28087425 103.27735784 279.23900682 103.28195077 C278.12482729 103.28176641 277.01064777 103.28158205 275.86270523 103.2813921 C274.09098183 103.28690713 274.09098183 103.28690713 272.28346604 103.29253358 C268.9992186 103.3016622 265.71502113 103.30627049 262.43076575 103.30892289 C258.89074719 103.31282571 255.35074311 103.32240407 251.8107338 103.33113575 C243.25866818 103.35090098 234.70660138 103.36096652 226.15451863 103.36986354 C222.12742888 103.37424642 218.10034044 103.37961323 214.07325172 103.38485241 C200.68661936 103.40186488 187.29998781 103.41635907 173.91334629 103.42360115 C170.43920579 103.42551105 166.96506531 103.42743138 163.49092484 103.42938709 C162.19569989 103.4301127 162.19569989 103.4301127 160.87430879 103.43085297 C146.88629983 103.43915336 132.89837639 103.46449031 118.91040478 103.49696777 C104.55007186 103.53003801 90.18978241 103.54804989 75.82941121 103.55124539 C67.76626006 103.55341054 59.7032336 103.56215986 51.64011955 103.58770657 C44.77316792 103.60941312 37.90637128 103.61746425 31.03938923 103.60773978 C27.5365702 103.60319487 24.03407095 103.60509192 20.53129578 103.62450123 C16.73076893 103.64214746 12.9310544 103.63514847 9.1305275 103.62196827 C8.02750158 103.63293752 6.92447567 103.64390676 5.78802472 103.65520841 C-0.5854283 103.601814 -5.53104341 102.87279829 -10.82084274 99.13422108 C-15.52718636 94.18652651 -15.97352924 90.1269481 -15.9978447 83.54510975 C-16.00441589 82.77402378 -16.01098709 82.00293781 -16.01775742 81.2084856 C-16.03746989 78.656386 -16.04914813 76.10434518 -16.05912399 73.55218983 C-16.06319952 72.67982496 -16.06727505 71.8074601 -16.07147408 70.90865993 C-16.0923256 66.29171072 -16.10663155 61.67479116 -16.11600876 57.05780506 C-16.12707414 52.29288845 -16.161478 47.5284387 -16.20118046 42.76368713 C-16.22734237 39.09619251 -16.23570018 35.42880924 -16.23929024 31.76122952 C-16.24415693 30.00498074 -16.25577333 28.24873696 -16.27432823 26.49257946 C-16.29871231 24.03184981 -16.29775647 21.57232982 -16.29081345 19.111516 C-16.3036235 18.38974171 -16.31643356 17.66796741 -16.32963181 16.92432117 C-16.27772595 11.86333046 -14.97450675 9.04319189 -11.82084274 5.13422108 C-7.71742287 1.51930357 -5.42760061 0.01091863 0 0 Z M2.17915726 18.13422108 C2.17915726 40.24422108 2.17915726 62.35422108 2.17915726 85.13422108 C26.67049519 85.80510915 26.67049519 85.80510915 51.16353226 86.25726795 C61.16436047 86.39340138 71.1607105 86.55276872 81.15767288 86.8693285 C88.4415264 87.09986448 95.72172741 87.24723976 103.00912762 87.29825646 C106.8640406 87.32805931 110.7085155 87.39704136 114.56004715 87.56601238 C130.63952784 88.68067182 130.63952784 88.68067182 144.9886055 82.93111515 C149.9167926 77.55981277 153.36835003 71.56188641 156.62312698 65.07598019 C159.09608354 60.40072252 162.19254207 56.21123625 165.30415726 51.94672108 C166.44009236 50.33042156 167.57329714 48.71219637 168.70259476 47.09125233 C171.15976222 43.5841275 173.62482303 40.08266922 176.09321976 36.58343983 C177.05590775 35.2157848 177.05590775 35.2157848 178.03804398 33.82050037 C179.26919408 32.07168233 180.50248397 30.32436808 181.73823929 28.57880116 C182.29108597 27.79271473 182.84393265 27.0066283 183.41353226 26.19672108 C184.1439473 25.16224842 184.1439473 25.16224842 184.88911819 24.10687733 C186.4114204 21.86177815 186.4114204 21.86177815 188.17915726 18.13422108 C126.79915726 18.13422108 65.41915726 18.13422108 2.17915726 18.13422108 Z M204.91743851 22.84027576 C203.25460029 25.73090732 201.78095127 28.67271491 200.39302444 31.70453358 C198.2039818 36.08614106 195.23772165 39.93068152 192.36665726 43.88422108 C191.17883085 45.57357056 189.9939587 47.2650009 188.81196976 48.95843983 C186.35310327 52.46435477 183.8886703 55.96628638 181.42134476 59.46625233 C180.80493118 60.34249256 180.18851761 61.2187328 179.55342484 62.12152576 C178.3912723 63.77337659 177.22721462 65.42388966 176.06074905 67.07269764 C171.91065802 72.97632196 168.01202921 79.02047733 164.17915726 85.13422108 C180.29032893 87.3929581 180.29032893 87.3929581 195.50484085 83.78802967 C199.32164773 80.06546494 201.56304445 75.41559232 203.86714554 70.66205311 C206.15678016 66.25065065 209.14161076 62.33691121 212.05415726 58.32172108 C213.23186726 56.64429729 214.40632506 54.96458566 215.57759476 53.28265858 C218.0374993 49.76446998 220.50140288 46.24912883 222.96821976 42.73578358 C223.58970901 41.84995594 224.21119827 40.9641283 224.85152054 40.05145741 C226.02877307 38.37364452 227.20677475 36.69635692 228.38570023 35.01971912 C235.19992305 27.02113029 235.19992305 27.02113029 239.17915726 18.13422108 C220.40157371 15.29470566 220.40157371 15.29470566 204.91743851 22.84027576 Z M257.90181351 21.95843983 C256.95081559 23.66013817 256.04444457 25.38738046 255.17915726 27.13422108 C253.9726763 28.88665709 252.74105357 30.62199058 251.48775101 32.34125233 C250.19496864 34.20806989 248.90469332 36.07662558 247.61665726 37.94672108 C246.20674686 39.98334963 244.79658584 42.0198047 243.38618851 44.05609608 C242.33165482 45.58073475 242.33165482 45.58073475 241.25581741 47.1361742 C238.11842859 51.66558105 234.96362422 56.18269666 231.80415726 60.69672108 C231.23479446 61.51092518 230.66543167 62.32512928 230.07881546 63.16400623 C226.1048779 68.83776167 222.09253535 74.48305744 218.02144241 80.08759022 C216.03377911 82.39173949 216.03377911 82.39173949 215.17915726 85.13422108 C237.28915726 85.13422108 259.39915726 85.13422108 282.17915726 85.13422108 C282.17915726 63.02422108 282.17915726 40.91422108 282.17915726 18.13422108 C263.70785522 15.9125004 263.70785522 15.9125004 257.90181351 21.95843983 Z " fill="#000000" transform="translate(177.82084274291992,33.86577892303467)"/>
<path d="M0 0 C0.92683594 0.79277344 1.85367187 1.58554688 2.80859375 2.40234375 C9.28864148 8.09148413 14.78974922 14.13771849 20 21 C20.80179687 22.03640625 21.60359375 23.0728125 22.4296875 24.140625 C42.22135655 50.33218077 52.22124265 82.13537403 52.25 114.8125 C52.25067474 115.50152405 52.25134949 116.1905481 52.25204468 116.90045166 C52.18617534 159.34123381 34.96582774 197.87646636 5.16796875 227.90234375 C-6.71689173 239.23442002 -20.18518859 248.35186503 -35.12402344 255.14599609 C-36.90747771 255.95788093 -38.67688432 256.80041757 -40.4453125 257.64453125 C-73.5898803 272.83258726 -113.47128501 274.12671689 -148 263 C-148.72219727 262.76829102 -149.44439453 262.53658203 -150.18847656 262.29785156 C-167.42328188 256.65934894 -182.95178273 248.53826912 -197 237 C-197.56170898 236.54367187 -198.12341797 236.08734375 -198.70214844 235.6171875 C-230.16813858 209.93627029 -250.11010489 173.81332127 -254.81689453 133.36279297 C-258.0642939 91.4583515 -247.69624084 50.53639916 -220.46875 17.97265625 C-212.73933142 9.22686932 -212.73933142 9.22686932 -208.125 8.625 C-204.28147742 9.08622271 -202.74399889 10.33440108 -200 13 C-198.56695936 15.86608129 -198.69355845 17.81300783 -199 21 C-200.67665731 24.13462019 -202.65241081 26.59123511 -204.953125 29.296875 C-218.42118272 45.21367048 -227.75298926 63.84458127 -233 84 C-233.32097656 85.22074219 -233.64195312 86.44148438 -233.97265625 87.69921875 C-241.79887823 123.69983987 -233.76786499 161.26918238 -214.0703125 192.01171875 C-212.13619849 194.76040775 -210.111393 197.3850062 -208 200 C-207.35272949 200.81331787 -207.35272949 200.81331787 -206.69238281 201.64306641 C-183.93134552 230.05080502 -151.21361328 247.14587754 -115.1875 251.6875 C-78.84381569 254.50159088 -41.72253978 244.35943512 -13.68457031 220.48535156 C-3.36591877 211.38699273 5.67261767 201.66078048 13 190 C13.38881348 189.38576172 13.77762695 188.77152344 14.17822266 188.13867188 C32.33022067 158.96982463 39.22546866 121.89052732 31.54345703 88.24072266 C22.78438241 52.12626315 1.86356849 20.28000235 -30.18408203 0.66308594 C-46.50402934 -8.93189931 -64.2864929 -15.14384812 -83 -18 C-83.83917969 -18.13019531 -84.67835938 -18.26039063 -85.54296875 -18.39453125 C-114.79667477 -22.06961995 -143.69356294 -15.18093231 -169 -0.5625 C-173.18817307 1.75528718 -176.13383884 2.97323223 -181 2 C-183.75329021 0.20437595 -185.52627461 -1.05254922 -187 -4 C-187.40632471 -7.65692241 -187.39986697 -9.41621253 -185.29296875 -12.4921875 C-169.49031317 -29.77550076 -135.33323438 -36.25160973 -112.91015625 -37.875 C-71.16074005 -39.66826351 -31.77063614 -27.65308683 0 0 Z " fill="#000000" transform="translate(255,242)"/>
<path d="M0 0 C3.78503552 4.8839168 3.31434262 10.10898653 3 16 C3.78761719 16.08636719 4.57523437 16.17273438 5.38671875 16.26171875 C23.29577644 18.57188122 39.83746631 26.31926761 51.64111328 40.19921875 C58.18478031 48.87081199 62.07379616 58.72032034 62.3125 69.5625 C62.36857422 71.23505859 62.36857422 71.23505859 62.42578125 72.94140625 C62 76 62 76 60.26171875 78.37109375 C57.07392256 80.66696769 54.939794 80.56157014 51.125 80.3984375 C48.06854002 79.82535125 46.76383155 78.49876136 45 76 C43.73257526 73.46515053 43.5681473 71.1853866 43.1875 68.375 C41.71204948 59.30531885 38.11885073 51.73096457 30.55078125 46.21484375 C21.74872076 40.43273707 14.33466216 37.29659159 4 35 C3.67 59.75 3.34 84.5 3 110 C5.97 110.33 8.94 110.66 12 111 C28.88754275 114.75727626 45.05593741 123.86304785 54.5703125 138.58984375 C61.80198766 150.78094642 63.6430383 162.90202314 61.5703125 176.90234375 C57.81117062 191.21956932 47.91793124 202.39298271 35.75 210.3125 C25.45197735 216.30253668 14.78593376 219.55374073 3 221 C3.03480469 221.66386719 3.06960937 222.32773437 3.10546875 223.01171875 C3.37625798 231.84460556 3.37625798 231.84460556 0 236 C-2.54168437 238.54168437 -4.35529161 238.31299113 -7.83203125 238.4609375 C-11.12021518 237.76182812 -12.70870467 236.43400577 -15 234 C-15.48828125 230.765625 -15.48828125 230.765625 -15.3125 227.25 C-15.26738281 226.07953125 -15.22226563 224.9090625 -15.17578125 223.703125 C-15.08876953 222.36507812 -15.08876953 222.36507812 -15 221 C-16.01578125 220.84144531 -17.0315625 220.68289063 -18.078125 220.51953125 C-37.44565006 217.31366012 -54.94465671 209.2663991 -66.875 193.0625 C-73.14044878 183.57566481 -76.19654161 173.38423876 -75 162 C-73.4375 158.875 -73.4375 158.875 -71 157 C-67.08091414 155.85990229 -64.96841496 155.59111368 -61.1875 157.1875 C-57.46434095 160.27240321 -56.80676486 163.45669571 -56.1875 168.125 C-54.35282479 178.70966466 -49.41583745 186.37747823 -40.75 192.62109375 C-33.08828363 197.54472879 -24.88907138 200.22218572 -16 202 C-15.67 177.25 -15.34 152.5 -15 127 C-19.29 126.34 -23.58 125.68 -28 125 C-44.71142136 120.76689327 -59.7291671 110.86100936 -68.875 96.125 C-75.53646846 83.86851627 -77.17720915 70.82256511 -73.4375 57.25 C-67.85631563 41.32606138 -56.70630731 30.73305253 -42 23 C-33.37089563 19.0604089 -24.55593951 16 -15 16 C-15.04640625 15.10796875 -15.0928125 14.2159375 -15.140625 13.296875 C-15.19476563 11.54117188 -15.19476563 11.54117188 -15.25 9.75 C-15.29640625 8.58984375 -15.3428125 7.4296875 -15.390625 6.234375 C-15 3 -15 3 -13.09765625 0.6328125 C-8.57010888 -2.89142363 -5.24581889 -2.19370608 0 0 Z M-47.4375 48.875 C-54.57882043 56.40172502 -57.4298444 63.76163919 -57.265625 74.06640625 C-56.38444698 83.79823994 -50.96357765 90.50814858 -44 97 C-35.18471022 104.18168713 -26.06780404 106.78643919 -15 109 C-15 84.25 -15 59.5 -15 34 C-26.87106432 34 -39.10178446 40.94085908 -47.4375 48.875 Z M3 128 C3 152.42 3 176.84 3 202 C14.45976548 200.72669272 23.307922 197.61967877 32 190 C32.61617187 189.48824219 33.23234375 188.97648437 33.8671875 188.44921875 C39.80919434 183.10651303 43.36589266 176.67236988 44.4453125 168.71875 C44.82230676 157.96184708 41.21322493 149.88111612 34 142 C26.08831846 134.77035997 13.97091509 128 3 128 Z " fill="#000000" transform="translate(160,240)"/>
<path d="M0 0 C1.12847351 -0.00990463 2.25694702 -0.01980927 3.4196167 -0.03001404 C4.65861221 -0.02551239 5.89760773 -0.02101074 7.17414856 -0.01637268 C8.47846832 -0.02323593 9.78278809 -0.03009918 11.12663269 -0.03717041 C14.70752749 -0.05514179 18.28817776 -0.05392515 21.86910415 -0.04822803 C24.86085378 -0.0451395 27.85255621 -0.05122541 30.84429914 -0.05726677 C37.907251 -0.07132568 44.97008198 -0.06974161 52.03303528 -0.05836487 C59.30906699 -0.04690351 66.58472925 -0.06092251 73.86071223 -0.08776134 C80.11310166 -0.10995741 86.36537548 -0.11654633 92.61780149 -0.11068493 C96.34940858 -0.10732086 100.08077931 -0.10969248 103.81235313 -0.12693596 C107.98006203 -0.14535242 112.14705924 -0.13117798 116.31477356 -0.11402893 C118.1580851 -0.12853088 118.1580851 -0.12853088 120.03863525 -0.14332581 C128.24719147 -0.07267466 133.68687615 0.99944326 140.02888489 6.53611755 C140.66052551 7.27088318 141.29216614 8.0056488 141.94294739 8.76268005 C142.59005676 9.49228943 143.23716614 10.2218988 143.90388489 10.97361755 C148.34582045 17.41755224 147.90427838 24.33574972 147.93904114 31.87205505 C147.94806961 33.08282715 147.95709808 34.29359924 147.96640015 35.5410614 C147.98088611 38.09960973 147.98978526 40.65819496 147.9934845 43.21678162 C148.00536394 47.11032817 148.05455636 51.0022809 148.10505676 54.89549255 C148.1145237 57.38767236 148.12175744 59.87986186 148.12654114 62.37205505 C148.14607346 63.52655151 148.16560577 64.68104797 148.18572998 65.87052917 C148.13993532 74.16668458 146.5556638 81.04467817 140.81231689 87.29972839 C135.12195116 92.66007254 129.07761705 94.76012588 121.33718872 94.77536011 C120.29727013 94.78343841 120.29727013 94.78343841 119.23634309 94.79167992 C116.9317354 94.80589693 114.62770718 94.79887179 112.32307434 94.79173279 C110.66352377 94.79743944 109.00397713 94.80440484 107.34443665 94.81253052 C102.8508674 94.83043877 98.35749365 94.82929865 93.86389947 94.82358813 C90.11106533 94.82049472 86.35826865 94.82659002 82.60543984 94.83262688 C73.75526405 94.84666111 64.90518483 94.84511833 56.05500793 94.83372498 C46.92249631 94.82222807 37.79027781 94.83634826 28.65780479 94.86312145 C20.81390829 94.88525652 12.97010397 94.89192129 5.12617844 94.88604504 C0.44238806 94.88267102 -4.24121413 94.88512075 -8.92497826 94.90229607 C-13.32541388 94.91772962 -17.72541343 94.91384993 -22.1258316 94.89499092 C-23.74155149 94.8912959 -25.35730345 94.89444004 -26.97299385 94.90487671 C-29.17658427 94.91802602 -31.37871779 94.90659565 -33.58224487 94.8888855 C-35.43247269 94.88857157 -35.43247269 94.88857157 -37.32007885 94.8882513 C-41.04198391 94.28957059 -42.20074374 93.37581956 -44.43205261 90.38768005 C-45.49640365 86.48505957 -45.82944847 84.32888076 -44.24455261 80.57518005 C-42.28543563 78.21072852 -41.26922154 77.47110161 -38.43205261 76.38768005 C-35.40540314 76.13714027 -35.40540314 76.13714027 -31.7898407 76.13612366 C-31.12362623 76.13315352 -30.45741176 76.13018338 -29.77100897 76.12712324 C-27.54009733 76.11948856 -25.30944939 76.12597491 -23.07853699 76.13230896 C-21.47854433 76.12955886 -19.87855303 76.12587884 -18.27856445 76.12133789 C-14.83384354 76.11322676 -11.38918754 76.11105718 -7.94445801 76.11328506 C-2.49898466 76.11611656 2.94635878 76.10177298 8.39179993 76.08430481 C23.87611446 76.03726009 39.36042004 76.01333065 54.84480286 76.00682068 C63.39723962 76.00307325 71.94952933 75.98507086 80.50190306 75.95172632 C85.91671886 75.93148013 91.33115625 75.92915746 96.74599457 75.94000649 C100.11250757 75.9426095 103.47879918 75.92863009 106.8452549 75.90992546 C108.40775052 75.90459316 109.97028665 75.90611798 111.53276634 75.91496086 C113.66428778 75.9260525 115.79430627 75.91268794 117.92573547 75.89320374 C119.11887108 75.8921142 120.31200668 75.89102467 121.54129791 75.88990211 C125.17741274 75.28654943 126.35565575 74.28067078 128.56794739 71.38768005 C129.15995959 69.04150029 129.15995959 69.04150029 129.06965637 66.48313904 C129.07903732 65.51210739 129.08841827 64.54107574 129.0980835 63.5406189 C129.08684952 62.49886002 129.07561554 61.45710114 129.06404114 60.3837738 C129.06549637 59.30894241 129.0669516 58.23411102 129.06845093 57.12670898 C129.06679197 54.85633125 129.05523111 52.58594226 129.03450012 50.31565857 C129.005526 46.83462451 129.01389577 43.35511111 129.02693176 39.87400818 C129.02069504 37.66892263 129.01230463 35.4638419 129.00154114 33.2587738 C129.00447678 32.21499069 129.00741241 31.17120758 129.01043701 30.09579468 C128.99141075 28.64397545 128.99141075 28.64397545 128.97200012 27.16282654 C128.96389565 25.88519691 128.96389565 25.88519691 128.95562744 24.58175659 C128.46728838 21.81800004 127.77565454 21.09109481 125.56794739 19.38768005 C123.16192895 18.93440756 123.16192895 18.93440756 120.41941833 19.00241089 C119.35392258 18.99276306 118.28842682 18.98311523 117.19064331 18.97317505 C116.02174057 18.97775223 114.85283783 18.98232941 113.64851379 18.98704529 C112.41740372 18.98006622 111.18629364 18.97308716 109.9178772 18.96589661 C107.23960097 18.95274529 104.56194816 18.94500974 101.88370132 18.94642448 C97.64775247 18.94845706 93.4120719 18.92889819 89.17619324 18.90625 C80.94666703 18.86525177 72.71716181 18.84666825 64.48755646 18.83007812 C54.01950468 18.80773303 43.55151484 18.77415439 33.08356416 18.72287899 C28.87420643 18.70297128 24.66498869 18.69337826 20.45558572 18.69192684 C17.21908589 18.68852641 13.98264018 18.6726219 10.74617004 18.65892029 C9.58131577 18.66147324 8.41646149 18.66402618 7.21630859 18.66665649 C6.14517319 18.65982849 5.07403778 18.65300049 3.97044373 18.64596558 C3.04240747 18.64433127 2.11437122 18.64269697 1.15821266 18.64101315 C-2.43427372 18.28966084 -5.29345713 17.24162666 -8.18205261 15.07518005 C-9.86052077 12.80924804 -10.23130519 11.19814401 -10.43205261 8.38768005 C-8.68419598 2.27018184 -6.37039344 0.01575702 0 0 Z " fill="#000000" transform="translate(330.4320526123047,383.61231994628906)"/>
<path d="M0 0 C1.21077209 -0.00902847 2.42154419 -0.01805695 3.66900635 -0.02735901 C6.22755467 -0.04184497 8.7861399 -0.05074412 11.34472656 -0.05444336 C15.23827312 -0.0663228 19.13022585 -0.11551522 23.0234375 -0.16601562 C25.51561731 -0.17548257 28.0078068 -0.1827163 30.5 -0.1875 C32.23174469 -0.21679848 32.23174469 -0.21679848 33.99847412 -0.24668884 C42.29462953 -0.20089419 49.17262311 1.38337734 55.42767334 7.12672424 C62.47253951 14.60532337 62.97419563 22.11397538 62.94921875 31.98828125 C62.9544606 33.20001007 62.95970245 34.41173889 62.96510315 35.66018677 C62.97151121 38.21697221 62.97020218 40.77378717 62.96166992 43.33056641 C62.95316858 47.22612466 62.98192782 51.12021171 63.01367188 55.015625 C63.01528435 57.50650998 63.01470547 59.99739754 63.01171875 62.48828125 C63.02295273 63.64480194 63.03418671 64.80132263 63.04576111 65.9928894 C62.9759622 74.16172173 61.72837632 80.6065998 56.33203125 86.9296875 C55.21634766 87.85974609 55.21634766 87.85974609 54.078125 88.80859375 C53.33691406 89.44667969 52.59570312 90.08476562 51.83203125 90.7421875 C47.57406084 93.73640953 43.92092889 94.62201275 38.75073242 94.66162109 C37.615728 94.6743808 36.48072357 94.6871405 35.31132507 94.70028687 C33.48466057 94.70362534 33.48466057 94.70362534 31.62109375 94.70703125 C29.72911003 94.71701645 29.72911003 94.71701645 27.79890442 94.72720337 C25.13166174 94.73732323 22.46482675 94.74288663 19.79760742 94.74169922 C16.39819178 94.74149636 12.99961526 94.76877254 9.60039806 94.80324364 C6.33649572 94.83097991 3.07259784 94.8296651 -0.19140625 94.83203125 C-2.00896172 94.8535878 -2.00896172 94.8535878 -3.86323547 94.87557983 C-11.99916678 94.83183654 -17.118547 93.68603218 -23.69140625 88.6953125 C-24.48611328 87.88513672 -24.48611328 87.88513672 -25.296875 87.05859375 C-26.11091797 86.26001953 -26.11091797 86.26001953 -26.94140625 85.4453125 C-32.13038433 78.46974957 -31.93843493 71.69916968 -31.91796875 63.28125 C-31.9232106 62.02275742 -31.92845245 60.76426483 -31.93385315 59.46763611 C-31.94026282 56.81216904 -31.94039933 54.15756576 -31.93041992 51.50219727 C-31.91893524 48.11848515 -31.93914861 44.7358175 -31.96833706 41.35224247 C-31.99121473 38.09940746 -31.98422731 34.84664651 -31.98046875 31.59375 C-31.99170273 30.38832047 -32.00293671 29.18289093 -32.01451111 27.94093323 C-31.94671304 19.71633211 -30.88268302 14.26370112 -25.3359375 7.91015625 C-24.60117187 7.27851563 -23.86640625 6.646875 -23.109375 5.99609375 C-22.37976563 5.34898437 -21.65015625 4.701875 -20.8984375 4.03515625 C-14.45450282 -0.40677931 -7.53630534 0.03476276 0 0 Z M-12.13452148 19.70727539 C-14.38573309 24.14984545 -14.05308379 28.65242366 -14.015625 33.55859375 C-14.0194519 34.65324951 -14.02327881 35.74790527 -14.02722168 36.87573242 C-14.02994236 39.1889742 -14.02257034 41.50224667 -14.00585938 43.81542969 C-13.9844534 47.35811897 -14.00565726 50.89878011 -14.03125 54.44140625 C-14.02860675 56.68880656 -14.02348184 58.93620562 -14.015625 61.18359375 C-14.02372192 62.24408936 -14.03181885 63.30458496 -14.04016113 64.3972168 C-13.98929958 68.38196745 -13.94680125 71.44691831 -12.15039062 75.03710938 C-7.7014181 77.2632253 -3.19913361 76.93977268 1.703125 76.90234375 C2.79778076 76.90617065 3.89243652 76.90999756 5.02026367 76.91394043 C7.33350545 76.91666111 9.64677792 76.90928909 11.95996094 76.89257812 C15.50265022 76.87117215 19.04331136 76.89237601 22.5859375 76.91796875 C24.83333781 76.9153255 27.08073687 76.91020059 29.328125 76.90234375 C30.38862061 76.91044067 31.44911621 76.9185376 32.54174805 76.92687988 C38.06243235 76.85795941 38.06243235 76.85795941 43.17944336 75.02124023 C45.38413753 70.64850951 45.10515365 66.26482313 45.08203125 61.4375 C45.08822983 60.36741196 45.09442841 59.29732391 45.10081482 58.19480896 C45.10791539 55.93286041 45.10473491 53.67085962 45.09204102 51.40893555 C45.0781882 47.94937807 45.11222993 44.49253159 45.15039062 41.03320312 C45.15134194 38.83463475 45.14948234 36.636063 45.14453125 34.4375 C45.15778946 33.40403946 45.17104767 32.37057892 45.18470764 31.30580139 C45.12713123 26.86011137 44.94373692 24.1015088 42.66796875 20.21875 C37.97728576 17.46944015 33.79692383 17.67358208 28.44921875 17.7421875 C27.37817398 17.73977554 26.30712921 17.73736359 25.20362854 17.73487854 C22.94341319 17.73585653 20.68317375 17.74923845 18.4230957 17.77416992 C14.96157639 17.80850991 11.50260544 17.79481704 8.04101562 17.77539062 C5.84373912 17.78228818 3.64646921 17.79195974 1.44921875 17.8046875 C0.41373398 17.79972763 -0.62175079 17.79476776 -1.68861389 17.78965759 C-5.61488809 17.85411884 -8.60256706 17.92649358 -12.13452148 19.70727539 Z " fill="#000000" transform="translate(415.484375,161.62890625)"/>
<path d="M0 0 C1.20935715 -0.00761353 2.41871429 -0.01522705 3.66471863 -0.02307129 C6.21729473 -0.0338515 8.76991487 -0.03673389 11.32250977 -0.03222656 C15.20730012 -0.03125579 19.09010457 -0.07287475 22.97460938 -0.1171875 C25.46223549 -0.1223962 27.94986843 -0.12508267 30.4375 -0.125 C32.16453911 -0.1495929 32.16453911 -0.1495929 33.9264679 -0.17468262 C42.59360036 -0.10121718 49.13707151 1.90819605 55.85546875 7.49609375 C56.37109375 8.12644531 56.88671875 8.75679687 57.41796875 9.40625 C57.95421875 10.03402344 58.49046875 10.66179687 59.04296875 11.30859375 C61.84523031 15.71101036 62.66820088 20.10114965 62.70849609 25.25537109 C62.7212558 26.37027924 62.7340155 27.48518738 62.74716187 28.63388062 C62.74938751 29.82462189 62.75161316 31.01536316 62.75390625 32.2421875 C62.76389145 34.09875473 62.76389145 34.09875473 62.77407837 35.99282837 C62.78418816 38.60685747 62.78889591 41.2209123 62.78857422 43.83496094 C62.78833114 47.822571 62.82928231 51.80944628 62.8671875 55.796875 C62.87305637 58.34114206 62.87702529 60.88541436 62.87890625 63.4296875 C62.89327728 64.61638031 62.90764832 65.80307312 62.92245483 67.02572632 C62.87759443 75.19993857 61.80563328 80.65080966 56.234375 86.9296875 C55.49058594 87.56132812 54.74679687 88.19296875 53.98046875 88.84375 C52.86865234 89.81441406 52.86865234 89.81441406 51.734375 90.8046875 C47.49515738 93.85006137 43.83247948 94.71959847 38.65307617 94.75927734 C37.51807175 94.77203705 36.38306732 94.78479675 35.21366882 94.79794312 C33.38700432 94.80128159 33.38700432 94.80128159 31.5234375 94.8046875 C29.63145378 94.8146727 29.63145378 94.8146727 27.70124817 94.82485962 C25.03400549 94.83497948 22.3671705 94.84054288 19.69995117 94.83935547 C16.30053553 94.83915261 12.90195901 94.86642879 9.50274181 94.90089989 C6.23883947 94.92863616 2.97494159 94.92732135 -0.2890625 94.9296875 C-2.10661797 94.95124405 -2.10661797 94.95124405 -3.96089172 94.97323608 C-12.2138916 94.92886336 -17.70315478 93.91048324 -24.04296875 88.28515625 C-24.67460937 87.54136719 -25.30625 86.79757813 -25.95703125 86.03125 C-26.60414063 85.29003906 -27.25125 84.54882812 -27.91796875 83.78515625 C-30.93489009 79.58554509 -31.83240135 75.94390595 -31.87255859 70.81152344 C-31.8853183 69.69976746 -31.898078 68.58801147 -31.91122437 67.44256592 C-31.91345001 66.24980042 -31.91567566 65.05703491 -31.91796875 63.828125 C-31.92462555 62.59137024 -31.93128235 61.35461548 -31.93814087 60.0803833 C-31.94826017 57.46457403 -31.95295811 54.84873898 -31.95263672 52.23291016 C-31.95239418 48.24741437 -31.99330401 44.26265794 -32.03125 40.27734375 C-32.03712035 37.73177461 -32.04108828 35.18620022 -32.04296875 32.640625 C-32.05733978 31.45595642 -32.07171082 30.27128784 -32.08651733 29.05072021 C-32.04233095 20.97668837 -30.9100559 14.51727483 -25.6875 8.1640625 C-25.05457031 7.64585937 -24.42164063 7.12765625 -23.76953125 6.59375 C-23.14433594 6.06007812 -22.51914062 5.52640625 -21.875 4.9765625 C-14.64735373 0.22380022 -8.49823672 0.00147886 0 0 Z M-11.71850586 19.80273438 C-14.74237522 24.12877308 -14.27533569 28.50517743 -14.2109375 33.65625 C-14.21334946 34.75090576 -14.21576141 35.84556152 -14.21824646 36.97338867 C-14.21726741 39.28665796 -14.20386033 41.59995051 -14.17895508 43.91308594 C-14.14465578 47.45588698 -14.1582924 50.9961934 -14.17773438 54.5390625 C-14.17083588 56.78646896 -14.16116348 59.03386898 -14.1484375 61.28125 C-14.15339737 62.34174561 -14.15835724 63.40224121 -14.16346741 64.49487305 C-14.09961352 68.47789362 -14.04372958 71.54754667 -12.24584961 75.13476562 C-7.79849924 77.36190543 -3.29564891 77.03742022 1.60546875 77 C2.70012451 77.0038269 3.79478027 77.00765381 4.92260742 77.01159668 C7.2358492 77.01431736 9.54912167 77.00694534 11.86230469 76.99023438 C15.40499397 76.9688284 18.94565511 76.99003226 22.48828125 77.015625 C24.73568156 77.01298175 26.98308062 77.00785684 29.23046875 77 C30.29096436 77.00809692 31.35145996 77.01619385 32.4440918 77.02453613 C36.42802103 76.97368507 39.49287519 76.93201746 43.08178711 75.13476562 C45.31064595 70.68763635 45.00730531 66.18409951 44.984375 61.28125 C44.99057358 60.18659424 44.99677216 59.09193848 45.00315857 57.96411133 C45.01025909 55.65088796 45.00707876 53.3376135 44.99438477 51.02441406 C44.98051852 47.48146753 45.0145903 43.94116094 45.05273438 40.3984375 C45.05368554 38.15104102 45.05182689 35.90364123 45.046875 33.65625 C45.06013321 32.59575439 45.07339142 31.53525879 45.08705139 30.44262695 C45.04570589 24.7595473 45.04570589 24.7595473 42.55444336 19.80273438 C37.90069696 17.82343412 33.61570958 17.89727237 28.60546875 17.9375 C27.5589917 17.9336731 26.51251465 17.92984619 25.43432617 17.92590332 C23.22541337 17.92318562 21.01646831 17.93053678 18.80761719 17.94726562 C15.42960756 17.96867623 12.05372485 17.94745803 8.67578125 17.921875 C6.52733906 17.9245183 4.3788982 17.92964332 2.23046875 17.9375 C1.22201904 17.92940308 0.21356934 17.92130615 -0.82543945 17.91296387 C-4.89964732 17.96735383 -7.94576425 18.19813718 -11.71850586 19.80273438 Z " fill="#000000" transform="translate(304.58203125,161.53125)"/>
<path d="M0 0 C1.11175598 -0.0127597 2.22351196 -0.02551941 3.36895752 -0.03866577 C5.15810577 -0.04200424 5.15810577 -0.04200424 6.98339844 -0.04541016 C8.2201532 -0.05206696 9.45690796 -0.05872375 10.73114014 -0.06558228 C13.34694941 -0.07570158 15.96278446 -0.08039952 18.57861328 -0.08007812 C22.56410907 -0.07983559 26.54886549 -0.12074542 30.53417969 -0.15869141 C33.07974883 -0.16456176 35.62532322 -0.16852969 38.17089844 -0.17041016 C39.35556702 -0.18478119 40.5402356 -0.19915222 41.76080322 -0.21395874 C49.83483506 -0.16977235 56.29424861 0.9625027 62.64746094 6.18505859 C63.42476562 7.13445312 63.42476562 7.13445312 64.21777344 8.10302734 C64.75144531 8.72822266 65.28511719 9.35341797 65.83496094 9.99755859 C70.58772322 17.22520486 70.81004458 23.37432188 70.81152344 31.87255859 C70.82294373 33.68659431 70.82294373 33.68659431 70.83459473 35.53727722 C70.84537494 38.08985333 70.84825733 40.64247347 70.84375 43.19506836 C70.84277923 47.07985871 70.88439819 50.96266316 70.92871094 54.84716797 C70.93391964 57.33479409 70.9366061 59.82242702 70.93652344 62.31005859 C70.9529187 63.461418 70.96931396 64.6127774 70.98620605 65.79902649 C70.91274062 74.46615896 68.90332739 81.00963011 63.31542969 87.72802734 C62.68507813 88.24365234 62.05472656 88.75927734 61.40527344 89.29052734 C60.7775 89.82677734 60.14972656 90.36302734 59.50292969 90.91552734 C53.01281317 95.04666842 46.18330945 94.59708682 38.75292969 94.59130859 C37.53504257 94.59559372 36.31715546 94.59987885 35.06236267 94.60429382 C32.49120708 94.61002733 29.92003527 94.61054462 27.34887695 94.60620117 C23.42273201 94.60304139 19.49734092 94.6265134 15.57128906 94.65185547 C13.06933689 94.65412861 10.56738269 94.65483189 8.06542969 94.65380859 C6.31045921 94.66762321 6.31045921 94.66762321 4.52003479 94.68171692 C-3.68413853 94.63531395 -9.47738488 93.63014249 -15.84472656 88.10302734 C-16.47765625 87.57322266 -17.11058594 87.04341797 -17.76269531 86.49755859 C-24.03297413 79.19300698 -24.25088691 72.37018783 -24.18847656 63.10302734 C-24.19230347 61.84594971 -24.19613037 60.58887207 -24.20007324 59.29370117 C-24.2027873 56.64396245 -24.19750068 53.99571541 -24.17871094 51.34619141 C-24.15592155 47.97030925 -24.16906024 44.5956995 -24.19300079 41.21986389 C-24.21102785 37.97254111 -24.19836239 34.72536681 -24.18847656 31.47802734 C-24.19657349 30.27573486 -24.20467041 29.07344238 -24.2130127 27.8347168 C-24.1218986 19.63444839 -23.0626729 14.12850801 -17.47363281 7.82958984 C-16.35794922 6.88212891 -16.35794922 6.88212891 -15.21972656 5.91552734 C-14.47851562 5.26841797 -13.73730469 4.62130859 -12.97363281 3.95458984 C-8.77402165 0.9376685 -5.13238252 0.04015725 0 0 Z M-4.32324219 19.62670898 C-6.55038199 24.07405935 -6.22589678 28.57690968 -6.18847656 33.47802734 C-6.19230347 34.57268311 -6.19613037 35.66733887 -6.20007324 36.79516602 C-6.20279393 39.1084078 -6.1954219 41.42168026 -6.17871094 43.73486328 C-6.15730496 47.27755257 -6.17850882 50.81821371 -6.20410156 54.36083984 C-6.20145832 56.60824016 -6.19633341 58.85563921 -6.18847656 61.10302734 C-6.19657349 62.16352295 -6.20467041 63.22401855 -6.2130127 64.31665039 C-6.16216163 68.30057962 -6.12049402 71.36543378 -4.32324219 74.9543457 C0.12388708 77.18320454 4.62742393 76.8798639 9.53027344 76.85693359 C10.6249292 76.86313217 11.71958496 76.86933075 12.84741211 76.87571716 C15.16063548 76.88281768 17.47390993 76.87963735 19.78710938 76.86694336 C23.33005591 76.85307712 26.8703625 76.88714889 30.41308594 76.92529297 C32.66048242 76.92624414 34.90788221 76.92438548 37.15527344 76.91943359 C38.21576904 76.9326918 39.27626465 76.94595001 40.36889648 76.95960999 C46.05197614 76.91826449 46.05197614 76.91826449 51.00878906 74.42700195 C52.98808931 69.77325555 52.91425106 65.48826818 52.87402344 60.47802734 C52.87785034 59.43155029 52.88167725 58.38507324 52.88562012 57.30688477 C52.88833782 55.09797197 52.88098666 52.88902691 52.86425781 50.68017578 C52.84284721 47.30216616 52.86406541 43.92628344 52.88964844 40.54833984 C52.88700514 38.39989766 52.88188012 36.25145679 52.87402344 34.10302734 C52.88212036 33.09457764 52.89021729 32.08612793 52.89855957 31.04711914 C52.84416961 26.97291127 52.61338626 23.92679434 51.00878906 20.15405273 C46.68275036 17.13018337 42.30634601 17.5972229 37.15527344 17.66162109 C36.06061768 17.65920914 34.96596191 17.65679718 33.83813477 17.65431213 C31.52486547 17.65529118 29.21157293 17.66869826 26.8984375 17.69360352 C23.35563645 17.72790281 19.81533004 17.71426619 16.27246094 17.69482422 C14.02505447 17.70172271 11.77765446 17.71139511 9.53027344 17.72412109 C8.46977783 17.71916122 7.40928223 17.71420135 6.31665039 17.70909119 C2.33362982 17.77294507 -0.73602324 17.82882901 -4.32324219 19.62670898 Z " fill="#000000" transform="translate(407.6572265625,272.70947265625)"/>
<path d="M0 0 C1.19349564 -0.00786278 1.19349564 -0.00786278 2.41110229 -0.0158844 C4.09729853 -0.02230861 5.78353957 -0.0209624 7.46972656 -0.01245117 C10.02492497 -0.00400463 12.57783869 -0.03259005 15.1328125 -0.06445312 C24.90229533 -0.10856645 32.70565749 0.04700367 40.48828125 6.58203125 C41.41833984 7.68417969 41.41833984 7.68417969 42.3671875 8.80859375 C43.32431641 9.90300781 43.32431641 9.90300781 44.30078125 11.01953125 C48.68784311 17.52122004 48.25118808 24.39147838 48.265625 31.953125 C48.2722818 33.16626877 48.2789386 34.37941254 48.28579712 35.62931824 C48.29590677 38.19207242 48.30061466 40.75485285 48.30029297 43.31762695 C48.30466051 47.22196229 48.34098529 51.12516176 48.37890625 55.02929688 C48.38477596 57.52473574 48.38874432 60.02017994 48.390625 62.515625 C48.40499603 63.67528275 48.41936707 64.83494049 48.43417358 66.02973938 C48.38840727 74.21955063 47.13389339 80.61767582 41.78125 86.9921875 C40.67910156 87.92224609 40.67910156 87.92224609 39.5546875 88.87109375 C38.82507813 89.50917969 38.09546875 90.14726562 37.34375 90.8046875 C31.6698342 94.6332035 25.99291136 94.82497502 19.3671875 94.87109375 C18.52994141 94.90396484 17.69269531 94.93683594 16.83007812 94.97070312 C12.40294371 95.00926091 10.50993729 94.87212013 6.875 92.125 C4.31896007 88.58863151 4.24222179 86.7111582 4.9296875 82.43359375 C7.06648035 79.04419819 8.1071642 77.70776818 11.9296875 76.43359375 C15.51184663 76.20109784 19.09285912 76.05213487 22.6796875 75.91015625 C25.83006695 75.70596864 25.83006695 75.70596864 27.60855103 74.20898438 C29.34644452 71.87354071 29.30994753 70.44739541 29.31787109 67.55078125 C29.32732758 66.55965332 29.33678406 65.56852539 29.3465271 64.54736328 C29.33741806 62.94417236 29.33741806 62.94417236 29.328125 61.30859375 C29.33243027 59.66093018 29.33243027 59.66093018 29.33682251 57.97998047 C29.33886486 55.65657028 29.33332313 53.33314297 29.32080078 51.00976562 C29.30475028 47.44752663 29.32064448 43.88642233 29.33984375 40.32421875 C29.33786135 38.0690079 29.33401774 35.81379777 29.328125 33.55859375 C29.33419769 32.4897998 29.34027039 31.42100586 29.3465271 30.31982422 C29.33707062 29.32869629 29.32761414 28.33756836 29.31787109 27.31640625 C29.31429092 26.00760498 29.31429092 26.00760498 29.31063843 24.67236328 C28.84618755 21.94288186 28.1474603 21.05330293 25.9296875 19.43359375 C22.7338698 18.97412407 22.7338698 18.97412407 19.06640625 19.02734375 C18.39680374 19.01650757 17.72720123 19.00567139 17.03730774 18.99450684 C14.89716982 18.96026089 12.75756321 18.94466507 10.6171875 18.93359375 C7.80808781 18.91895473 5.00016129 18.88510385 2.19140625 18.83984375 C0.31908325 18.82920898 0.31908325 18.82920898 -1.59106445 18.81835938 C-5.4212645 18.39478241 -7.83083405 17.50197063 -11.0703125 15.43359375 C-12.69392806 11.78045875 -13.35932943 9.58966147 -12.3828125 5.68359375 C-9.15934744 0.15765365 -6.20375183 -0.02378745 0 0 Z " fill="#000000" transform="translate(319.0703125,272.56640625)"/>
<path d="M0 0 C1.81759323 -0.00786278 1.81759323 -0.00786278 3.67190552 -0.0158844 C6.22869096 -0.02229246 8.78550592 -0.02098343 11.34228516 -0.01245117 C15.23784341 -0.00394983 19.13193046 -0.03270907 23.02734375 -0.06445312 C25.51822873 -0.0660656 28.00911629 -0.06548672 30.5 -0.0625 C31.65652069 -0.07373398 32.81304138 -0.08496796 34.00460815 -0.09654236 C42.17344048 -0.02674345 48.61831855 1.22084243 54.94140625 6.6171875 C55.56144531 7.36097656 56.18148437 8.10476562 56.8203125 8.87109375 C57.45839844 9.61230469 58.09648437 10.35351562 58.75390625 11.1171875 C63.22984502 17.4822515 62.7225033 23.87868257 62.69848633 31.40844727 C62.6953164 33.49352839 62.71884968 35.57720231 62.74414062 37.66210938 C62.74478516 38.98017578 62.74542969 40.29824219 62.74609375 41.65625 C62.74907471 42.86031494 62.75205566 44.06437988 62.75512695 45.30493164 C62.35052761 48.70489271 61.84758741 50.08990532 59.3828125 52.43359375 C55.01562653 53.490171 52.68144171 53.941753 48.5078125 52.30859375 C45.43673048 49.5988155 44.52855802 46.84749578 44.11157227 42.80224609 C44.09308228 41.42480225 44.09308228 41.42480225 44.07421875 40.01953125 C44.04908203 39.01148438 44.02394531 38.0034375 43.99804688 36.96484375 C43.96276116 34.85292815 43.93154057 32.7409409 43.90429688 30.62890625 C43.8646582 29.12070313 43.8646582 29.12070313 43.82421875 27.58203125 C43.80403687 26.20797119 43.80403687 26.20797119 43.78344727 24.80615234 C43.29651728 21.92255356 42.66697065 21.2094074 40.3828125 19.43359375 C38.14401108 18.96678948 38.14401108 18.96678948 35.62353516 19.01367188 C34.17655746 18.98980408 34.17655746 18.98980408 32.7003479 18.9654541 C31.65970184 18.96525269 30.61905579 18.96505127 29.546875 18.96484375 C28.47537201 18.95723022 27.40386902 18.9496167 26.29989624 18.94177246 C24.03198579 18.93096139 21.76402551 18.92812242 19.49609375 18.93261719 C16.0277986 18.93358815 12.5617248 18.89200375 9.09375 18.84765625 C6.89062962 18.84244835 4.68750154 18.83976107 2.484375 18.83984375 C1.4477774 18.82344849 0.41117981 18.80705322 -0.65682983 18.79016113 C-6.64588765 18.81720552 -6.64588765 18.81720552 -11.69384766 21.85742188 C-12.3285498 22.70755859 -12.96325195 23.55769531 -13.6171875 24.43359375 C-16.23644203 26.9655398 -17.36446713 27.40142934 -21.0546875 27.87109375 C-25.24888465 27.35601691 -26.81142418 26.56944687 -29.6171875 23.43359375 C-31.10824345 19.57439011 -30.73816127 17.11060785 -29.1171875 13.43359375 C-22.64958475 1.80968915 -12.31751489 -0.03115693 0 0 Z " fill="#000000" transform="translate(193.6171875,161.56640625)"/>
</svg>
