<?xml version="1.0" standalone="no"?>
<!DOCTYPE svg PUBLIC "-//W3C//DTD SVG 20010904//EN"
 "http://www.w3.org/TR/2001/REC-SVG-20010904/DTD/svg10.dtd">
<svg version="1.0" xmlns="http://www.w3.org/2000/svg"
 width="512.000000pt" height="512.000000pt" viewBox="0 0 512.000000 512.000000"
 preserveAspectRatio="xMidYMid meet">

<g transform="translate(0.000000,512.000000) scale(0.100000,-0.100000)"
fill="#000000" stroke="none">
<path d="M975 5026 c-43 -19 -75 -57 -89 -107 -10 -35 -18 -45 -37 -47 -56 -6
-165 -36 -229 -62 -330 -136 -558 -491 -537 -837 5 -90 26 -145 95 -252 23
-35 47 -83 53 -105 18 -66 6 -150 -30 -207 -17 -27 -44 -70 -61 -96 -42 -68
-64 -162 -57 -248 6 -86 34 -160 87 -236 49 -70 70 -126 70 -189 0 -61 -15
-102 -60 -170 -53 -78 -76 -127 -89 -188 -27 -126 -5 -227 75 -354 61 -97 74
-132 74 -198 -1 -59 -19 -106 -68 -182 -75 -115 -87 -151 -87 -263 0 -92 3
-106 32 -167 17 -37 50 -87 73 -112 52 -56 160 -112 235 -121 l55 -7 0 -399 0
-399 760 0 760 0 0 160 0 160 319 0 319 0 4 -109 c3 -118 12 -141 72 -185 27
-21 35 -21 819 -21 l792 0 63 34 c112 61 159 141 172 290 6 75 40 216 160 661
83 311 154 588 157 616 9 85 -18 157 -86 225 -73 72 -123 89 -267 89 l-102 0
-11 -32 c-6 -18 -89 -319 -186 -668 -97 -349 -183 -659 -191 -688 l-15 -52
-255 0 c-208 0 -254 2 -254 14 0 7 -16 45 -35 83 -43 86 -103 144 -193 186
-63 30 -75 32 -204 35 l-136 4 -13 29 c-16 41 -90 103 -137 117 -27 8 -156 12
-416 12 l-376 0 0 88 c0 301 -98 629 -264 882 l-56 85 0 134 c0 123 1 133 18
126 9 -4 50 -13 90 -21 97 -18 624 -20 686 -2 55 16 138 99 154 154 28 94 8
169 -63 239 -62 63 -101 75 -239 75 -58 0 -106 2 -106 5 0 3 11 23 25 44 51
76 68 138 73 263 4 113 5 118 31 134 103 65 149 172 122 281 -7 26 -43 94 -82
153 l-69 107 0 155 0 156 30 12 c44 18 105 92 120 145 25 89 -7 245 -73 358
-15 25 -54 73 -88 106 -70 71 -188 133 -283 150 -34 6 -191 11 -362 11 l-302
0 -6 35 c-8 43 -50 94 -93 111 -43 19 -247 18 -288 0z m225 -468 l0 -323 -80
0 -80 0 0 323 0 322 80 0 80 0 0 -322z m892 120 c129 -64 212 -182 225 -321 5
-61 4 -67 -20 -91 l-26 -26 -456 0 -455 0 0 241 0 240 328 -3 328 -3 76 -37z
m-1212 -230 l0 -263 -51 -30 c-128 -75 -234 -230 -260 -379 -22 -128 6 -272
74 -388 34 -59 122 -146 186 -183 l51 -30 0 -281 0 -281 -62 -38 c-137 -85
-247 -226 -305 -390 l-28 -80 -3 -532 c-3 -595 4 -544 -76 -521 -55 16 -138
99 -154 154 -26 90 -10 166 58 263 53 76 81 150 87 236 7 86 -15 180 -57 248
-17 26 -44 69 -61 96 -24 38 -32 65 -36 114 -7 77 5 115 59 199 81 124 93 161
93 278 0 118 -11 152 -87 268 -49 76 -67 123 -68 182 0 66 14 104 69 189 59
90 80 144 88 228 11 113 -17 204 -97 322 -54 81 -64 119 -56 224 7 103 45 226
97 314 45 75 179 209 254 253 69 41 206 89 253 90 l32 0 0 -262z m404 -406
c91 -42 149 -100 194 -190 35 -72 37 -81 37 -172 0 -91 -2 -100 -37 -172 -45
-91 -103 -147 -196 -191 -61 -29 -76 -32 -162 -32 -86 0 -101 3 -162 32 -93
44 -151 100 -196 191 -35 72 -37 81 -37 171 0 87 3 102 32 163 40 85 97 147
172 186 78 42 122 52 213 48 61 -3 92 -11 142 -34z m876 -116 c0 -183 4 -198
94 -332 36 -55 66 -109 66 -122 0 -33 -27 -80 -50 -87 -27 -8 -77 -52 -92 -79
-7 -11 -15 -82 -18 -156 -5 -114 -10 -142 -29 -180 -45 -88 -129 -152 -221
-166 -27 -4 -126 5 -281 27 l-239 33 -11 31 c-6 16 -13 87 -16 156 -5 122 -5
127 15 133 34 11 134 93 175 144 45 55 77 115 103 192 26 76 26 243 0 320 -21
64 -78 171 -101 190 -9 7 -21 22 -26 32 -9 17 3 18 311 18 l320 0 0 -154z
m-957 -911 c6 -129 36 -236 94 -334 41 -71 149 -192 195 -218 27 -17 28 -20
28 -101 l0 -84 -63 59 c-84 79 -206 163 -322 225 l-95 50 0 256 0 257 79 0 78
0 6 -110z m490 -355 c163 -24 205 -25 276 -6 l53 13 -9 -26 c-4 -14 -8 -57 -8
-95 l1 -69 -101 6 c-144 8 -242 45 -347 131 -70 59 -81 79 -35 71 17 -3 94
-14 170 -25z m762 -45 c16 -15 25 -36 25 -55 0 -19 -9 -40 -25 -55 -23 -24
-31 -25 -135 -25 -104 0 -112 1 -135 25 -16 15 -25 36 -25 55 0 19 9 40 25 55
23 24 31 25 135 25 104 0 112 -1 135 -25z m-1405 -186 c480 -261 764 -715 787
-1257 l6 -134 -210 4 -209 3 -76 37 c-91 45 -147 103 -191 196 l-32 67 -3 248
-4 247 -79 0 -79 0 0 -223 c0 -260 8 -313 60 -422 63 -132 168 -225 319 -284
l66 -26 678 -5 679 -5 19 -24 c17 -20 19 -40 19 -157 l0 -134 -674 0 c-560 0
-688 3 -761 15 -358 63 -648 354 -710 714 -13 76 -16 156 -13 444 4 349 4 352
29 418 35 91 69 145 126 203 52 54 139 115 163 115 8 1 49 -18 90 -40z m3599
-607 c37 -20 71 -73 71 -110 0 -12 -63 -260 -141 -550 -77 -290 -144 -544
-150 -564 l-10 -38 -114 0 c-64 0 -115 4 -115 9 0 8 325 1187 346 1254 7 23
69 23 113 -1z m-3965 -996 c47 -68 182 -199 256 -247 206 -136 375 -179 701
-179 l199 0 0 -80 0 -80 -600 0 -600 0 0 320 c0 176 2 320 3 320 2 0 21 -24
41 -54z m2507 -118 c60 -17 149 -103 149 -143 0 -3 -85 -5 -190 -5 l-190 0 0
80 0 80 96 0 c53 0 114 -5 135 -12z m1205 -340 c-7 -39 -31 -74 -70 -102 -27
-21 -38 -21 -777 -24 l-749 -2 0 80 0 80 801 0 802 0 -7 -32z"/>
<path d="M1040 3907 c-49 -16 -133 -102 -148 -153 -22 -74 -22 -74 68 -74 65
0 80 3 80 15 0 27 47 65 80 65 41 0 80 -39 80 -80 0 -33 -38 -80 -65 -80 -12
0 -15 -15 -15 -80 0 -90 0 -90 74 -68 55 16 138 99 154 154 26 89 9 163 -55
234 -65 72 -158 97 -253 67z"/>
<path d="M3627 5029 c-99 -23 -208 -98 -267 -184 l-30 -43 -202 -4 c-196 -3
-205 -4 -260 -30 -124 -58 -213 -180 -224 -308 -7 -86 114 -938 146 -1023 30
-79 104 -158 188 -199 l66 -33 261 -3 260 -3 190 -188 c205 -203 227 -218 312
-208 59 6 120 50 150 106 20 39 23 58 23 167 l0 122 198 4 197 3 67 33 c84 41
158 120 188 199 31 84 153 936 146 1021 -11 128 -93 245 -215 305 l-66 32
-202 3 -203 4 -30 43 c-60 88 -167 160 -271 184 -54 13 -369 12 -422 0z m444
-175 c57 -27 116 -86 143 -144 21 -47 29 -165 13 -204 -7 -17 -10 -16 -31 12
-35 47 -58 63 -213 141 l-143 71 -142 -71 c-155 -78 -180 -94 -214 -140 -26
-36 -33 -28 -41 45 -13 130 66 254 191 298 43 15 78 18 221 16 148 -3 176 -6
216 -24z m-791 -259 c0 -101 31 -185 115 -314 38 -58 44 -75 48 -138 5 -68 28
-128 73 -189 15 -21 13 -23 -45 -59 -169 -102 -296 -279 -334 -467 -13 -61
-14 -63 -42 -60 -64 7 -135 68 -159 136 -22 62 -140 915 -132 957 11 62 58
123 117 153 50 25 61 26 206 26 l153 0 0 -45z m1481 17 c63 -33 109 -98 116
-164 6 -57 -120 -926 -140 -964 -31 -60 -96 -110 -152 -116 -28 -3 -29 -1 -42
60 -38 187 -164 363 -334 468 -57 35 -59 38 -44 58 44 61 67 121 72 189 4 63
10 80 48 138 84 129 115 213 115 314 l0 45 154 0 c149 0 155 -1 207 -28z
m-811 -117 c60 -30 114 -64 120 -76 7 -13 10 -73 8 -169 -3 -162 -8 -177 -72
-224 -25 -19 -42 -21 -166 -21 -124 0 -141 2 -166 21 -64 47 -69 62 -72 224
-2 96 1 156 8 169 8 15 200 125 228 130 1 1 52 -24 112 -54z m71 -687 c129
-47 216 -117 289 -230 36 -55 80 -168 80 -204 0 -11 -29 -14 -155 -14 l-155 0
0 -188 c0 -193 -4 -212 -41 -212 -9 0 -103 90 -209 200 l-192 200 -174 0
c-200 0 -189 -7 -153 98 42 125 148 252 260 312 138 73 312 88 450 38z"/>
<path d="M3280 2560 l0 -80 400 0 400 0 0 80 0 80 -400 0 -400 0 0 -80z"/>
<path d="M2720 2240 c0 -67 -3 -80 -16 -80 -77 0 -189 -88 -212 -166 -28 -94
-8 -169 63 -239 63 -64 100 -75 244 -75 105 0 113 -1 136 -25 16 -15 25 -36
25 -55 0 -19 -9 -40 -25 -55 -23 -24 -31 -25 -135 -25 -104 0 -112 1 -135 25
-14 13 -25 31 -25 40 0 12 -15 15 -80 15 -67 0 -80 -3 -80 -16 0 -100 124
-224 224 -224 13 0 16 -13 16 -80 l0 -80 80 0 80 0 0 80 c0 67 3 80 16 80 77
0 189 88 212 166 28 94 8 169 -63 239 -63 64 -100 75 -244 75 -105 0 -113 1
-136 25 -16 15 -25 36 -25 55 0 19 9 40 25 55 23 24 31 25 135 25 104 0 112
-1 135 -25 14 -13 25 -31 25 -40 0 -12 15 -15 80 -15 67 0 80 3 80 16 0 76
-80 182 -157 208 -26 9 -55 16 -65 16 -16 0 -18 9 -18 80 l0 80 -80 0 -80 0 0
-80z"/>
<path d="M3280 2240 l0 -80 400 0 400 0 0 80 0 80 -400 0 -400 0 0 -80z"/>
<path d="M3280 1920 l0 -80 80 0 80 0 0 80 0 80 -80 0 -80 0 0 -80z"/>
<path d="M3600 1920 l0 -80 80 0 80 0 0 80 0 80 -80 0 -80 0 0 -80z"/>
<path d="M3920 1920 l0 -80 80 0 80 0 0 80 0 80 -80 0 -80 0 0 -80z"/>
</g>
</svg>
