<?xml version="1.0" standalone="no"?>
<!DOCTYPE svg PUBLIC "-//W3C//DTD SVG 20010904//EN"
 "http://www.w3.org/TR/2001/REC-SVG-20010904/DTD/svg10.dtd">
<svg version="1.0" xmlns="http://www.w3.org/2000/svg"
 width="512.000000pt" height="512.000000pt" viewBox="0 0 512.000000 512.000000"
 preserveAspectRatio="xMidYMid meet">

<g transform="translate(0.000000,512.000000) scale(0.100000,-0.100000)"
fill="#000000" stroke="none">
<path d="M2236 5095 c-56 -20 -107 -65 -136 -121 l-25 -48 -3 -366 -3 -366
-107 19 c-148 25 -461 19 -604 -12 -522 -114 -944 -446 -1172 -921 -88 -184
-133 -343 -155 -542 -20 -180 -10 -362 30 -543 29 -128 62 -223 125 -355 227
-475 651 -808 1171 -921 139 -30 438 -38 584 -15 57 9 129 23 159 31 l55 15
455 -454 c250 -250 470 -461 488 -471 47 -23 130 -21 178 4 58 29 1799 1776
1819 1823 43 105 -22 237 -132 267 -23 7 -163 11 -350 11 l-313 0 0 1393 0
1392 -24 51 c-27 59 -90 116 -145 132 -61 19 -1843 16 -1895 -3z m1875 -164
l24 -19 5 -1420 5 -1421 21 -28 c11 -15 36 -38 54 -50 33 -23 37 -23 362 -23
335 0 368 -3 368 -38 0 -25 -1740 -1762 -1765 -1762 -13 0 -165 145 -438 418
l-418 418 103 51 c645 321 1016 1010 923 1715 -25 189 -67 332 -150 506 -183
381 -491 674 -877 831 l-93 38 0 377 0 378 28 24 28 24 898 0 c870 0 900 -1
922 -19z m-2111 -886 c537 -119 967 -505 1135 -1018 53 -163 70 -278 70 -467
0 -189 -17 -304 -70 -467 -169 -517 -604 -905 -1145 -1020 -122 -26 -469 -26
-589 0 -207 45 -419 137 -586 255 -44 32 -130 107 -190 167 -221 220 -363 490
-421 800 -26 138 -26 392 0 530 119 636 605 1116 1246 1231 105 18 448 12 550
-11z"/>
<path d="M1475 3794 c-506 -90 -901 -480 -1011 -996 -25 -114 -25 -362 0 -476
112 -524 507 -907 1030 -998 138 -24 368 -15 505 21 477 124 823 488 927 977
25 114 25 362 0 476 -111 520 -508 909 -1020 997 -110 19 -323 18 -431 -1z
m504 -178 c232 -65 439 -204 582 -391 474 -622 170 -1511 -588 -1723 -90 -25
-113 -27 -278 -27 -165 0 -188 2 -278 27 -426 119 -738 466 -802 895 -19 124
-19 202 0 326 70 467 429 831 904 918 25 4 118 6 206 4 135 -3 175 -7 254 -29z"/>
<path d="M1647 3350 c-21 -17 -27 -33 -33 -80 -6 -54 -9 -60 -30 -60 -13 0
-48 -9 -78 -20 -157 -59 -240 -231 -207 -425 21 -121 76 -197 178 -247 63 -31
74 -33 208 -38 136 -5 143 -6 178 -33 47 -36 68 -76 74 -146 6 -69 -9 -130
-43 -171 -44 -52 -71 -60 -202 -60 -107 0 -122 2 -153 23 -47 31 -78 81 -85
138 -4 26 -15 57 -26 68 -20 22 -67 28 -97 11 -74 -39 -29 -227 77 -321 45
-39 134 -79 176 -79 21 0 24 -6 30 -60 6 -47 12 -63 33 -80 33 -25 63 -25 96
0 21 17 27 33 33 80 6 54 9 60 30 60 43 0 131 40 177 81 63 54 103 139 112
231 17 181 -47 313 -182 380 -63 31 -74 33 -208 38 -136 5 -143 6 -178 33 -47
36 -68 76 -74 146 -6 69 9 130 43 171 44 52 71 60 202 60 107 0 122 -2 153
-23 46 -31 77 -79 85 -133 3 -25 14 -54 24 -66 24 -30 83 -30 113 0 52 53 3
220 -89 301 -46 41 -135 81 -178 81 -21 0 -24 6 -30 60 -6 47 -12 63 -33 80
-14 11 -36 20 -48 20 -12 0 -34 -9 -48 -20z"/>
</g>
</svg>
