<?xml version="1.0" standalone="no"?>
<!DOCTYPE svg PUBLIC "-//W3C//DTD SVG 20010904//EN"
 "http://www.w3.org/TR/2001/REC-SVG-20010904/DTD/svg10.dtd">
<svg version="1.0" xmlns="http://www.w3.org/2000/svg"
 width="512.000000pt" height="512.000000pt" viewBox="0 0 512.000000 512.000000"
 preserveAspectRatio="xMidYMid meet">

<g transform="translate(0.000000,512.000000) scale(0.100000,-0.100000)"
fill="#000000" stroke="none">
<path d="M629 4344 c-63 -19 -140 -90 -170 -156 l-24 -53 -3 -1327 -2 -1328
-194 0 -195 0 -20 -26 c-19 -25 -21 -40 -21 -203 0 -202 11 -258 64 -335 54
-78 111 -118 201 -142 74 -20 4516 -20 4590 0 90 24 147 64 201 142 53 77 64
133 64 335 0 163 -2 178 -21 203 l-20 26 -195 0 -194 0 -2 1328 -3 1327 -24
53 c-31 69 -106 137 -174 157 -74 22 -3786 21 -3858 -1z m3838 -154 c18 -10
40 -31 50 -47 17 -26 18 -92 18 -1343 l0 -1315 -1975 0 -1975 0 0 1315 c0
1251 1 1317 18 1343 10 16 32 37 50 47 31 20 66 20 1907 20 1841 0 1876 0
1907 -20z m-2657 -2888 c0 -80 58 -173 138 -220 l47 -27 565 0 565 0 47 27
c80 47 138 140 138 220 l0 28 830 0 830 0 0 -129 c0 -121 -2 -132 -28 -182
-22 -43 -38 -59 -81 -81 l-53 -28 -2248 0 -2248 0 -53 28 c-43 22 -59 38 -81
81 -26 50 -28 61 -28 182 l0 129 830 0 830 0 0 -28z m1350 8 c0 -34 -28 -79
-60 -95 -44 -23 -1036 -23 -1080 0 -32 16 -60 61 -60 95 0 20 2 20 600 20 598
0 600 0 600 -20z"/>
<path d="M2522 4098 c-7 -7 -12 -24 -12 -38 0 -33 17 -50 50 -50 14 0 31 5 38
12 7 7 12 24 12 38 0 14 -5 31 -12 38 -7 7 -24 12 -38 12 -14 0 -31 -5 -38
-12z"/>
<path d="M900 3917 c-13 -7 -30 -24 -37 -37 -17 -34 -19 -2010 -2 -2059 6 -17
19 -36 29 -41 12 -6 613 -10 1674 -10 1627 0 1656 0 1675 19 11 11 23 35 26
53 3 18 4 484 3 1035 l-3 1002 -23 23 c-22 22 -28 23 -265 26 -133 2 -252 1
-264 -3 -30 -7 -63 -44 -63 -71 0 -12 9 -33 21 -47 l20 -27 212 -2 212 -3 3
-927 2 -928 -1560 0 -1560 0 2 928 3 927 1227 3 1227 2 20 26 c34 43 26 86
-20 109 -24 13 -201 15 -1281 15 -985 0 -1258 -3 -1278 -13z"/>
<path d="M2377 3650 c-23 -18 -26 -29 -29 -87 l-3 -67 -48 -19 -48 -20 -42 41
c-76 74 -81 73 -223 -70 -146 -146 -148 -153 -79 -227 l45 -48 -20 -47 -21
-46 -60 0 c-50 0 -64 -4 -84 -25 -24 -24 -25 -27 -25 -185 0 -89 4 -170 10
-180 12 -23 61 -40 117 -40 43 0 45 -1 64 -46 l21 -45 -46 -49 c-70 -75 -67
-83 72 -222 141 -141 154 -145 229 -74 l47 43 48 -20 48 -20 0 -63 c0 -102 4
-104 210 -104 206 0 210 2 210 104 l0 63 48 20 48 20 47 -43 c75 -71 88 -67
229 74 139 139 142 147 72 222 l-46 49 21 45 c19 45 21 46 64 46 56 0 105 17
117 40 6 10 10 93 10 184 l0 165 -26 20 c-20 16 -41 21 -85 21 l-58 0 -21 46
-20 47 45 48 c69 74 67 81 -79 227 -142 143 -147 144 -223 70 l-42 -41 -48 20
-48 19 -3 67 c-3 58 -6 69 -29 87 -23 18 -40 20 -183 20 -143 0 -160 -2 -183
-20z m245 -185 c5 -65 23 -87 81 -105 23 -7 68 -25 99 -41 76 -38 99 -37 148
8 l41 36 44 -43 44 -43 -39 -44 c-22 -23 -40 -50 -40 -58 0 -9 11 -37 24 -63
13 -26 31 -71 41 -101 25 -78 52 -101 115 -101 l50 0 0 -65 0 -65 -51 0 c-68
0 -84 -11 -105 -72 -9 -29 -30 -79 -46 -112 -35 -69 -32 -90 17 -145 l34 -38
-44 -43 -45 -44 -38 37 c-46 45 -81 48 -150 13 -26 -13 -71 -31 -100 -40 -60
-20 -82 -51 -82 -116 l0 -40 -60 0 -60 0 0 40 c0 68 -22 97 -88 116 -31 9 -75
27 -98 40 -60 35 -100 32 -146 -13 l-38 -37 -45 44 -44 43 34 38 c49 55 52 76
17 145 -16 33 -37 83 -46 112 -21 61 -37 72 -105 72 l-51 0 0 65 0 65 50 0
c63 0 90 23 115 101 10 30 28 75 41 101 13 26 24 54 24 63 0 8 -18 35 -40 58
l-39 44 44 43 44 43 41 -36 c49 -45 72 -46 148 -8 31 16 76 34 99 41 58 18 76
40 81 105 l4 55 58 0 58 0 4 -55z"/>
<path d="M2480 3151 c-88 -29 -164 -93 -202 -170 -33 -66 -33 -207 0 -269 37
-69 87 -117 154 -147 155 -70 328 -8 410 147 33 62 33 203 0 269 -51 104 -152
170 -267 175 -38 2 -81 0 -95 -5z m168 -168 c15 -11 38 -35 50 -54 20 -28 23
-44 20 -92 -3 -37 -11 -67 -25 -85 -65 -87 -201 -88 -266 -1 -21 29 -33 103
-23 143 8 34 54 86 91 102 40 19 119 12 153 -13z"/>
<path d="M2496 1694 c-60 -61 -21 -159 64 -159 29 0 46 7 64 25 59 60 19 160
-64 160 -27 0 -45 -7 -64 -26z"/>
</g>
</svg>
