<?xml version="1.0" standalone="no"?>
<!DOCTYPE svg PUBLIC "-//W3C//DTD SVG 20010904//EN"
 "http://www.w3.org/TR/2001/REC-SVG-20010904/DTD/svg10.dtd">
<svg version="1.0" xmlns="http://www.w3.org/2000/svg"
 width="512.000000pt" height="512.000000pt" viewBox="0 0 512.000000 512.000000"
 preserveAspectRatio="xMidYMid meet">

<g transform="translate(0.000000,512.000000) scale(0.100000,-0.100000)"
fill="#000000" stroke="none">
<path d="M2476 4808 c-437 -42 -754 -462 -672 -890 56 -291 254 -508 546 -600
98 -30 307 -33 410 -5 212 58 391 206 489 402 53 106 71 178 78 305 15 311
-158 591 -449 724 -128 59 -253 79 -402 64z m194 -132 c205 -37 372 -161 461
-341 57 -116 72 -189 66 -310 -8 -170 -66 -303 -183 -419 -117 -117 -252 -176
-422 -184 -184 -8 -334 46 -468 171 -126 117 -190 253 -201 423 -21 327 216
615 546 663 82 12 118 12 201 -3z"/>
<path d="M1710 3105 c-245 -49 -375 -168 -538 -493 -218 -431 -433 -892 -453
-967 -44 -170 8 -306 152 -392 30 -18 167 -76 304 -130 241 -94 253 -97 330
-98 68 0 89 4 131 26 l49 26 34 -56 c154 -253 460 -526 769 -686 85 -45 69
-48 243 55 276 165 490 361 641 585 33 50 62 92 64 94 2 2 25 -7 51 -20 38
-19 64 -23 128 -23 77 0 89 3 318 92 132 51 260 103 285 116 72 37 138 100
169 164 24 49 28 68 27 142 0 59 -7 103 -22 145 -30 87 -455 962 -521 1075
-79 134 -181 235 -292 288 -149 72 -150 72 -1028 71 -597 -1 -791 -4 -841 -14z
m1691 -129 c159 -34 255 -112 367 -297 64 -105 492 -997 508 -1058 20 -77 18
-120 -8 -171 -38 -75 -89 -101 -503 -257 -171 -64 -228 -56 -299 44 -22 31
-29 56 -33 105 -12 143 24 179 287 289 107 44 203 88 213 97 37 33 8 102 -43
102 -31 0 -372 -139 -430 -175 -134 -84 -189 -244 -140 -408 l23 -76 -48 -77
c-137 -219 -349 -418 -616 -580 -59 -35 -112 -64 -118 -64 -15 0 -151 82 -246
148 -216 150 -378 316 -494 506 l-43 69 23 69 c45 141 10 279 -95 375 -45 42
-83 62 -252 131 -217 91 -248 96 -274 49 -13 -24 -13 -30 0 -54 12 -21 55 -43
214 -109 256 -107 298 -144 298 -264 0 -137 -99 -236 -215 -217 -46 7 -490
181 -543 212 -25 15 -57 45 -72 67 -23 35 -27 51 -26 107 1 36 9 87 18 114 28
78 470 981 520 1061 88 142 205 232 339 261 93 20 1593 21 1688 1z"/>
<path d="M2021 2586 c-343 -119 -529 -189 -537 -201 -11 -15 -14 -69 -14 -235
0 -203 1 -218 20 -235 24 -22 67 -23 88 -1 14 14 18 47 22 203 l5 187 478 166
478 166 357 -124 c196 -68 412 -143 480 -165 l122 -42 0 -183 c0 -181 0 -183
25 -207 29 -30 58 -32 85 -5 19 19 20 33 20 243 0 201 -2 226 -17 239 -19 16
-1049 378 -1074 377 -8 0 -250 -82 -538 -183z"/>
<path d="M2925 2049 c-11 -6 -127 -118 -257 -248 l-238 -236 -107 107 c-60 58
-118 111 -130 117 -34 17 -92 13 -129 -10 -56 -34 -163 -157 -170 -195 -15
-83 -8 -93 229 -331 232 -233 269 -260 331 -248 24 5 112 87 375 348 189 188
356 360 372 381 31 42 38 92 19 141 -12 32 -92 118 -144 157 -42 30 -111 38
-151 17z m114 -180 l61 -52 -80 -86 c-43 -47 -194 -201 -334 -341 l-256 -255
-205 205 -205 205 62 62 62 63 131 -130 c95 -93 138 -130 155 -130 18 0 89 65
280 255 140 140 258 255 262 255 3 0 33 -23 67 -51z"/>
</g>
</svg>
