<?xml version="1.0" encoding="UTF-8"?>
<svg version="1.1" xmlns="http://www.w3.org/2000/svg" width="512" height="512">
<path d="M0 0 C10.05648088 8.61311701 10.05648088 8.61311701 13.29296875 14.2734375 C16.07258551 17.88301051 18.6977701 18.49536204 22.94140625 19.45703125 C35.52539982 22.87740667 45.45516839 29.97011033 52.50390625 41.14453125 C57.00177232 49.50594894 59.8957099 57.69460386 59.87890625 67.26953125 C59.88019531 68.06141846 59.88148438 68.85330566 59.8828125 69.66918945 C59.73007311 78.89864096 58.32435794 87.98207488 56.92724609 97.09228516 C54.59975938 109.12202058 54.59975938 109.12202058 58.50390625 120.14453125 C60.76636121 127.19354057 60.50086662 134.92361411 57.31640625 141.58203125 C53.02138145 149.05060215 47.53874865 153.15018004 39.50390625 156.14453125 C36.98784868 156.50141885 35.04957465 156.42123434 32.50390625 156.14453125 C32.44203125 157.19640625 32.38015625 158.24828125 32.31640625 159.33203125 C30.42621186 173.96161795 21.62993391 185.93498996 11.50390625 196.14453125 C10.78332031 196.57507813 10.06273437 197.005625 9.3203125 197.44921875 C7.18366753 199.12442782 7.18366753 199.12442782 6.76171875 202.4375 C6.31956647 209.98218451 6.31956647 209.98218451 9.4296875 216.62890625 C12.03212419 218.65257397 14.7056285 220.40338065 17.50390625 222.14453125 C19.18305466 223.41413127 20.83119576 224.72606452 22.44140625 226.08203125 C23.15167969 226.64792969 23.86195313 227.21382812 24.59375 227.796875 C26.58439097 230.2434501 26.89312017 231.45097689 27.61328125 234.43359375 C29.54620542 240.78203142 34.41055301 243.22949445 39.81640625 246.58203125 C41.81955089 247.8871917 43.82215554 249.19318128 45.82421875 250.5 C47.28649902 251.43658447 47.28649902 251.43658447 48.77832031 252.39208984 C60.89774052 260.18438636 72.89866744 268.59763958 80.50390625 281.14453125 C80.50390625 281.80453125 80.50390625 282.46453125 80.50390625 283.14453125 C90.07390625 279.18453125 99.64390625 275.22453125 109.50390625 271.14453125 C110.18048543 265.46713151 110.18048543 265.46713151 107.82421875 263.31640625 C107.09976562 262.8471875 106.3753125 262.37796875 105.62890625 261.89453125 C103.35279294 260.37712238 101.44524537 259.08587037 99.50390625 257.14453125 C96.8686298 256.79964608 94.27473034 256.54348031 91.62890625 256.33203125 C78.11739068 254.9703505 67.5397715 249.84851027 58.25390625 239.83203125 C49.39168457 228.87734056 47.07887229 215.85082316 48.50390625 202.14453125 C50.68550973 191.84559096 55.62030838 182.32038574 59.91503906 172.77075195 C62.46566962 166.96782862 64.40810946 161.42318868 65.62890625 155.20703125 C68.08216173 142.83139186 74.05361688 131.51418081 82.50390625 122.14453125 C82.99890625 121.55800781 83.49390625 120.97148437 84.00390625 120.3671875 C95.86767184 107.28738594 113.90866138 99.9375872 131.25390625 98.92578125 C150.43158564 98.31008049 168.77510631 103.9552355 183.390625 116.65234375 C189.55158602 122.55274571 194.41788018 128.66065193 198.50390625 136.14453125 C199.17679687 137.3665625 199.17679687 137.3665625 199.86328125 138.61328125 C202.62258646 144.13189166 204.15666312 149.6206878 205.56640625 155.58203125 C207.98103716 165.72536178 212.08678781 175.05029867 216.31469727 184.53686523 C222.21293548 197.77550613 225.73548155 211.98310557 220.87890625 226.26953125 C215.62965292 238.1678388 207.39377955 247.47262791 195.59375 253.046875 C191.15246833 254.76690894 186.91932291 255.32109483 182.21118164 255.7043457 C173.8337982 256.4062906 169.22790222 257.58514127 163.50390625 264.14453125 C162.51390625 264.80453125 161.52390625 265.46453125 160.50390625 266.14453125 C159.77047197 269.21009723 159.77047197 269.21009723 159.50390625 272.14453125 C160.20427002 272.26368896 160.90463379 272.38284668 161.6262207 272.50561523 C167.19455766 273.74192115 172.4075243 276.09404572 177.69140625 278.20703125 C178.87283203 278.66013672 180.05425781 279.11324219 181.27148438 279.58007812 C196.09982693 285.51963029 206.17657484 294.77215886 213.2421875 309.01953125 C216.53569718 317.17683077 216.89757858 324.66795478 216.94140625 333.39453125 C216.97427734 334.565 217.00714844 335.73546875 217.04101562 336.94140625 C217.09447881 345.41775091 217.09447881 345.41775091 214.234375 348.9375 C211.56975992 350.11541997 210.22556032 350.6144935 207.37890625 350.20703125 C206.71632813 350.13613281 206.05375 350.06523437 205.37109375 349.9921875 C202.36206576 348.62616433 201.77091182 347.20228937 200.50390625 344.14453125 C199.99402865 339.64457604 200.06754514 335.12322823 200.06445312 330.59960938 C199.86199698 320.44189569 196.6529563 311.52919788 189.50390625 304.14453125 C183.00943186 298.91639369 175.6243808 295.83531133 167.94140625 292.76953125 C166.83732422 292.31964844 165.73324219 291.86976563 164.59570312 291.40625 C161.90190687 290.31007317 159.20479204 289.2230933 156.50390625 288.14453125 C156.20589111 288.93384033 155.90787598 289.72314941 155.60083008 290.53637695 C153.62502578 295.23424415 149.50652743 298.03781954 145.12890625 300.45703125 C138.07755187 302.30381454 131.41058956 302.84608348 124.50390625 300.14453125 C120.03172118 297.48307382 116.38680811 294.51310032 113.50390625 290.14453125 C113.50390625 289.48453125 113.50390625 288.82453125 113.50390625 288.14453125 C105.25390625 291.44453125 97.00390625 294.74453125 88.50390625 298.14453125 C88.83390625 301.77453125 89.16390625 305.40453125 89.50390625 309.14453125 C89.58538697 311.16031202 89.64067318 313.17765937 89.64916992 315.19506836 C89.6587397 316.76610573 89.6587397 316.76610573 89.66850281 318.36888123 C89.67017204 320.00386314 89.67017204 320.00386314 89.671875 321.671875 C89.6752034 322.82321426 89.6785318 323.97455353 89.68196106 325.16078186 C89.68698893 327.57341109 89.68937068 329.98604718 89.68920898 332.39868164 C89.69141457 336.09597977 89.70966586 339.79298812 89.72851562 343.49023438 C89.73144658 345.8424469 89.73343337 348.19466084 89.734375 350.546875 C89.74156052 351.65103256 89.74874603 352.75519012 89.75614929 353.89280701 C89.75307266 354.91810013 89.74999603 355.94339325 89.74682617 356.99975586 C89.74825119 357.89923447 89.74967621 358.79871307 89.75114441 359.72544861 C89.48501486 362.3293726 88.87552872 363.92977551 87.50390625 366.14453125 C84.82757599 368.22612145 83.38636957 368.14040716 79.94140625 368.01953125 C76.50390625 367.14453125 76.50390625 367.14453125 74.81311035 365.41040039 C73.25927506 362.72114251 73.12622603 361.1073612 73.11914062 358.015625 C73.10902954 356.99355957 73.09891846 355.97149414 73.08850098 354.91845703 C73.09152222 353.81743652 73.09454346 352.71641602 73.09765625 351.58203125 C73.08682007 350.43976074 73.07598389 349.29749023 73.06481934 348.12060547 C73.03052636 344.46185707 73.01497192 340.8034192 73.00390625 337.14453125 C72.98924414 332.35256987 72.95531086 327.5612918 72.91015625 322.76953125 C72.91317749 321.68470459 72.91619873 320.59987793 72.91931152 319.48217773 C72.77524525 304.56012604 68.60022054 291.62410983 58.25390625 280.69921875 C52.7664971 275.60154036 46.66176428 271.38658122 40.50390625 267.14453125 C39.66714355 266.56606445 38.83038086 265.98759766 37.96826172 265.39160156 C32.49804997 261.6160592 27.0092662 257.8686141 21.50390625 254.14453125 C15.36745507 261.44547411 15.36745507 261.44547411 9.75390625 269.14453125 C6.49806634 273.48565112 3.75247439 275.10934342 -1.5390625 275.8984375 C-7.02339386 276.45695498 -11.43162712 275.02473781 -16.55859375 273.20703125 C-17.42419922 272.91634766 -18.28980469 272.62566406 -19.18164062 272.32617188 C-21.2924601 271.61479073 -23.39626143 270.88758824 -25.49609375 270.14453125 C-25.486101 271.91312752 -25.486101 271.91312752 -25.47590637 273.717453 C-25.41510326 284.82655573 -25.37012489 295.93562472 -25.34065723 307.04485607 C-25.32499836 312.75629293 -25.30375579 318.4675955 -25.26977539 324.17895508 C-25.23719023 329.69026828 -25.21924241 335.20145229 -25.21146202 340.71285439 C-25.20591703 342.81601305 -25.19508909 344.9191646 -25.17890358 347.0222683 C-25.15714077 349.9670683 -25.15412638 352.91133374 -25.15551758 355.85620117 C-25.14473175 356.72654495 -25.13394592 357.59688873 -25.12283325 358.49360657 C-25.1468835 363.19529761 -25.41774381 366.33443394 -28.49609375 370.14453125 C-30.36328125 371.02734375 -30.36328125 371.02734375 -32.37109375 371.26953125 C-33.02851563 371.37523437 -33.6859375 371.4809375 -34.36328125 371.58984375 C-37.9409436 370.8428593 -39.27122943 368.97720585 -41.49609375 366.14453125 C-42.20738552 363.01405002 -42.12907821 359.96274785 -42.0637207 356.7644043 C-42.0648159 355.35879494 -42.0648159 355.35879494 -42.06593323 353.92478943 C-42.0624563 350.83468266 -42.02358938 347.74609267 -41.984375 344.65625 C-41.97504727 342.51106083 -41.96793097 340.36586099 -41.9629364 338.22065735 C-41.94386362 332.57988985 -41.89475964 326.93976808 -41.8394165 321.29925537 C-41.78823052 315.54138931 -41.7654237 309.78341872 -41.74023438 304.02539062 C-41.68664181 292.73148743 -41.601325 281.43806308 -41.49609375 270.14453125 C-42.06005859 270.33152588 -42.62402344 270.51852051 -43.20507812 270.71118164 C-45.79690108 271.55999835 -48.39610602 272.38358008 -50.99609375 273.20703125 C-52.32640625 273.64885742 -52.32640625 273.64885742 -53.68359375 274.09960938 C-60.61486692 276.26563224 -65.8676086 276.95420394 -72.59765625 273.59765625 C-76.34021332 270.43010121 -79.02909996 266.86630529 -81.87109375 262.89453125 C-82.41636719 262.14945312 -82.96164063 261.404375 -83.5234375 260.63671875 C-84.85668971 258.81226836 -86.18045495 256.98170178 -87.49609375 255.14453125 C-90.71012571 255.76676137 -92.86918592 256.87451824 -95.55078125 258.734375 C-96.32389648 259.26651611 -97.09701172 259.79865723 -97.89355469 260.34692383 C-98.71114258 260.91950928 -99.52873047 261.49209473 -100.37109375 262.08203125 C-101.21446289 262.66815186 -102.05783203 263.25427246 -102.92675781 263.8581543 C-104.64087418 265.05150795 -106.35312675 266.24754331 -108.06347656 267.44628906 C-110.23640252 268.96323737 -112.42128134 270.46004711 -114.61328125 271.94921875 C-126.90936298 280.37478903 -135.44999093 289.7463213 -139.07292175 304.69055176 C-139.93539778 309.69206058 -139.81659833 314.75413839 -139.83984375 319.81640625 C-139.86177795 321.61637054 -139.86177795 321.61637054 -139.88415527 323.45269775 C-139.9461962 328.56292376 -139.98612736 333.67326537 -140.02783203 338.78369141 C-140.06151899 342.52389257 -140.10662177 346.26383602 -140.15234375 350.00390625 C-140.15762085 351.16122253 -140.16289795 352.31853882 -140.16833496 353.51092529 C-140.18174927 354.58594299 -140.19516357 355.66096069 -140.20898438 356.76855469 C-140.21627563 357.71261169 -140.22356689 358.6566687 -140.2310791 359.6293335 C-140.51005589 362.27704294 -141.09579813 363.89634084 -142.49609375 366.14453125 C-145.17242401 368.22612145 -146.61363043 368.14040716 -150.05859375 368.01953125 C-153.49609375 367.14453125 -153.49609375 367.14453125 -155.18667603 365.43334961 C-156.78779996 362.63463856 -156.8763472 360.86305814 -156.88427734 357.6484375 C-156.89373383 356.54628906 -156.90319031 355.44414062 -156.91293335 354.30859375 C-156.90686066 353.12007813 -156.90078796 351.9315625 -156.89453125 350.70703125 C-156.89740143 349.47597656 -156.90027161 348.24492187 -156.90322876 346.9765625 C-156.90579403 343.69964781 -156.89373141 340.42315931 -156.87695312 337.14630127 C-156.86731239 333.85268608 -156.89023985 330.55920032 -156.90625 327.265625 C-156.90426546 324.72525819 -156.90041745 322.18489202 -156.89453125 319.64453125 C-156.90060394 318.47220947 -156.90667664 317.2998877 -156.91293335 316.09204102 C-156.83915589 307.2965735 -155.27188659 299.47190978 -152.49609375 291.14453125 C-153.04394531 290.98597656 -153.59179688 290.82742188 -154.15625 290.6640625 C-162.00314452 288.35465127 -169.74683537 285.75861441 -177.49609375 283.14453125 C-178.09164062 284.06878906 -178.6871875 284.99304688 -179.30078125 285.9453125 C-183.61984185 292.23945954 -188.36701476 295.83630895 -195.81640625 297.73828125 C-202.72600577 298.78580071 -209.50603548 297.94634358 -215.64453125 294.5234375 C-219.15871664 291.90633319 -221.77384109 288.54366835 -224.49609375 285.14453125 C-225.15609375 284.48453125 -225.81609375 283.82453125 -226.49609375 283.14453125 C-227.1917041 283.41193115 -227.88731445 283.67933105 -228.60400391 283.95483398 C-231.77417132 285.16972157 -234.94756799 286.37594505 -238.12109375 287.58203125 C-239.21550781 288.00291016 -240.30992187 288.42378906 -241.4375 288.85742188 C-242.50097656 289.26025391 -243.56445312 289.66308594 -244.66015625 290.078125 C-246.12122803 290.63584595 -246.12122803 290.63584595 -247.61181641 291.20483398 C-255.29124873 293.70679226 -255.29124873 293.70679226 -259.30859375 291.83203125 C-262.29192185 289.53060671 -262.43487061 288.60807785 -262.93359375 284.83203125 C-262.49609375 281.14453125 -262.49609375 281.14453125 -260.22265625 278.7109375 C-255.55141053 275.07958772 -249.9476228 273.36406418 -244.43359375 271.39453125 C-243.35787109 270.99621094 -242.28214844 270.59789062 -241.17382812 270.1875 C-236.62830101 268.52484594 -232.27204673 266.99094377 -227.49609375 266.14453125 C-227.43762378 263.33797258 -227.49383694 261.72386863 -228.49609375 259.14453125 C-230.58320209 257.01796078 -232.83936806 255.20399418 -235.140625 253.3125 C-240.92426344 247.98925069 -244.19755579 240.55093133 -246.49609375 233.14453125 C-246.49609375 231.82453125 -246.49609375 230.50453125 -246.49609375 229.14453125 C-247.19734375 229.11875 -247.89859375 229.09296875 -248.62109375 229.06640625 C-256.89700988 228.57165039 -262.99178403 227.10174936 -268.80859375 220.95703125 C-273.34268073 215.18749822 -275.27776936 208.44017025 -274.49609375 201.14453125 C-273.33950196 196.72575748 -272.0385038 192.95814632 -269.49609375 189.14453125 C-269.6509737 186.19012324 -269.91405795 183.37943117 -270.30859375 180.45703125 C-270.40462891 179.67908203 -270.50066406 178.90113281 -270.59960938 178.09960938 C-270.88789762 175.77975969 -271.19022138 173.46212172 -271.49609375 171.14453125 C-273.47293269 156.0132126 -271.9866483 142.46076374 -262.74609375 129.734375 C-253.33807003 118.37266893 -239.87168529 114.22671451 -226.49609375 109.14453125 C-225.1679506 108.6276508 -223.83982385 108.11072822 -222.51171875 107.59375 C-205.77869354 101.29097717 -187.98765277 99.63790362 -171.22265625 106.87890625 C-154.3425502 114.77618113 -140.8790142 126.75745295 -134.20703125 144.58984375 C-131.73900361 152.38454975 -130.35481197 159.5091571 -130.37109375 167.70703125 C-130.37012695 168.40231934 -130.36916016 169.09760742 -130.36816406 169.81396484 C-130.39092902 174.34729507 -130.73873905 178.7602869 -131.24609375 183.26953125 C-131.7152857 188.29407523 -131.7152857 188.29407523 -129.62109375 192.70703125 C-128.91984375 193.51140625 -128.21859375 194.31578125 -127.49609375 195.14453125 C-125.26572402 201.84993768 -125.61531712 209.07832355 -128.55859375 215.45703125 C-132.27996543 222.00581382 -136.40487927 225.70531499 -143.62109375 227.95703125 C-146.8888151 228.8183316 -150.17906645 229.50119321 -153.49609375 230.14453125 C-153.70363281 230.89476562 -153.91117187 231.645 -154.125 232.41796875 C-157.66032823 244.16295041 -164.16136128 254.25470961 -174.49609375 261.14453125 C-175.22574741 263.70735867 -175.22574741 263.70735867 -175.49609375 266.14453125 C-174.91085938 266.27988281 -174.325625 266.41523438 -173.72265625 266.5546875 C-168.98262039 267.74325505 -164.42490373 269.12967802 -159.8984375 270.97265625 C-158.70130127 271.45980103 -158.70130127 271.45980103 -157.47998047 271.95678711 C-155.87824978 272.61844174 -154.2820128 273.29357102 -152.69189453 273.98266602 C-151.57596924 274.44370728 -151.57596924 274.44370728 -150.4375 274.9140625 C-149.77435791 275.19870361 -149.11121582 275.48334473 -148.42797852 275.77661133 C-145.82797642 276.27177159 -144.68843587 275.54309433 -142.49609375 274.14453125 C-141.04993739 272.57179151 -141.04993739 272.57179151 -139.68359375 270.70703125 C-134.26301389 264.35265402 -127.30920211 259.87094234 -120.49609375 255.14453125 C-119.57521973 254.50370605 -118.6543457 253.86288086 -117.70556641 253.20263672 C-114.72442318 251.13371842 -111.73707581 249.07419738 -108.74609375 247.01953125 C-107.29867798 246.02360962 -107.29867798 246.02360962 -105.82202148 245.00756836 C-104.91524658 244.39018799 -104.00847168 243.77280762 -103.07421875 243.13671875 C-102.2637207 242.5835498 -101.45322266 242.03038086 -100.61816406 241.46044922 C-98.49609375 240.14453125 -98.49609375 240.14453125 -95.49609375 239.14453125 C-95.43421875 237.92765625 -95.37234375 236.71078125 -95.30859375 235.45703125 C-94.69323076 230.82561505 -93.13361851 229.18817442 -89.49609375 226.14453125 C-87.80642714 224.6052395 -86.11912081 223.06335471 -84.43359375 221.51953125 C-76.26571832 214.14453125 -76.26571832 214.14453125 -73.49609375 214.14453125 C-73.03678344 205.06469301 -73.03678344 205.06469301 -76.09765625 196.87109375 C-78.16167235 195.17365966 -80.29716446 193.66171364 -82.49609375 192.14453125 C-92.71943754 182.73994011 -98.31457536 169.61995212 -100.49609375 156.14453125 C-101.33140625 156.10585938 -101.33140625 156.10585938 -102.18359375 156.06640625 C-109.78177095 155.50167686 -115.58474461 153.5576787 -120.80859375 147.83203125 C-125.718395 141.56136117 -128.03378396 134.56344039 -127.24609375 126.625 C-126.5262566 122.3381127 -125.85676025 119.63543843 -123.24609375 116.08203125 C-121.33110738 112.86758985 -121.28780204 112.55982785 -122.05859375 109.14453125 C-122.38089966 108.03972412 -122.38089966 108.03972412 -122.7097168 106.91259766 C-125.66034155 96.52632523 -127.02424058 86.62263021 -126.93359375 75.83203125 C-126.92674561 74.56746094 -126.91989746 73.30289063 -126.9128418 72 C-126.62796616 55.33850941 -122.89588942 35.71083187 -112.49609375 22.14453125 C-109.58863227 20.26704094 -108.52558142 20.14349659 -104.93359375 20.26953125 C-101.49609375 21.14453125 -101.49609375 21.14453125 -99.49609375 22.64453125 C-97.89628871 26.64404385 -98.42435692 30.02646369 -99.49609375 34.14453125 C-100.60708955 36.63084899 -101.86421489 38.9977125 -103.15625 41.39453125 C-111.37183317 58.25683607 -112.42245521 80.97809926 -107.15234375 98.88671875 C-106.49609375 101.14453125 -106.49609375 101.14453125 -106.49609375 104.14453125 C-105.17609375 103.81453125 -103.85609375 103.48453125 -102.49609375 103.14453125 C-102.33753906 102.10554688 -102.17898437 101.0665625 -102.015625 99.99609375 C-99.64912888 85.44406516 -94.97433305 75.00371188 -83.30078125 65.32421875 C-74.40944484 58.98236948 -65.22725198 56.54517742 -54.421875 56.74609375 C-52.3522124 56.74136172 -50.28255087 56.73613891 -48.21289062 56.73046875 C-45.00037445 56.74523102 -41.78828856 56.76975208 -38.57592773 56.8046875 C-35.44071712 56.83142093 -32.30713546 56.82174713 -29.171875 56.80859375 C-28.21960526 56.8302359 -27.26733551 56.85187805 -26.28620911 56.87417603 C-19.22370456 56.82221955 -15.71016487 54.74893188 -10.49609375 50.14453125 C-6.77081336 48.00249503 -3.77027445 47.87129224 0.5 48.51953125 C3.92651377 49.5882295 5.95784265 51.66211924 8.50390625 54.14453125 C9.4286619 42.35389671 4.68617626 30.77137166 -2.5 21.58203125 C-12.34027195 10.08174821 -24.42839253 4.07782096 -39.49609375 2.14453125 C-53.41700301 1.25850031 -64.82542828 3.59333887 -76.85302734 10.5390625 C-81.42478924 13.06430576 -84.24674789 13.54000953 -89.49609375 12.14453125 C-92.22837475 9.85294073 -92.46967621 8.28718598 -93.12109375 4.76953125 C-92.42362352 0.72420392 -91.32125992 -0.86092754 -88.0546875 -3.3125 C-61.23801204 -19.48438825 -25.19462998 -19.63754319 0 0 Z M23.50390625 37.14453125 C23.66890625 38.13453125 23.83390625 39.12453125 24.00390625 40.14453125 C24.54148663 44.45285398 24.61785974 48.74577498 24.62890625 53.08203125 C24.63196777 53.78682617 24.6350293 54.49162109 24.63818359 55.21777344 C24.62191966 58.88999865 24.36438091 62.30252553 23.62890625 65.89453125 C22.90909921 71.01099751 25.54622533 74.72567379 27.9375 79.09765625 C31.8160557 86.64197906 32.97654012 94.76122831 33.50390625 103.14453125 C35.48390625 103.47453125 37.46390625 103.80453125 39.50390625 104.14453125 C45.75437912 74.100816 45.75437912 74.100816 36.25390625 46.33203125 C32.92076526 42.26300199 29.23261007 39.43968261 24.50390625 37.14453125 C24.17390625 37.14453125 23.84390625 37.14453125 23.50390625 37.14453125 Z M-8.12109375 68.45703125 C-8.97574219 69.16279297 -8.97574219 69.16279297 -9.84765625 69.8828125 C-12.82908388 72.16480568 -15.56539523 72.26850141 -19.17602539 72.27050781 C-20.12453873 72.27431458 -21.07305206 72.27812134 -22.05030823 72.28204346 C-23.5877494 72.28358429 -23.5877494 72.28358429 -25.15625 72.28515625 C-27.33399475 72.30349393 -29.5117294 72.32306512 -31.68945312 72.34375 C-35.11695283 72.37263274 -38.54380653 72.39452913 -41.97143555 72.39501953 C-45.28362101 72.39837461 -48.59432402 72.43305746 -51.90625 72.47265625 C-53.42243675 72.4620517 -53.42243675 72.4620517 -54.96925354 72.45123291 C-63.89052517 72.60211849 -70.70928324 75.446385 -77.37109375 81.39453125 C-82.94104121 87.39798877 -85.59429411 95.08284643 -85.65722656 103.18164062 C-85.66683411 104.1836853 -85.67644165 105.18572998 -85.68634033 106.21813965 C-85.69059021 107.29728638 -85.69484009 108.37643311 -85.69921875 109.48828125 C-85.70491882 110.60835571 -85.7106189 111.72843018 -85.7164917 112.88244629 C-85.72593876 115.25625669 -85.73247451 117.63008018 -85.73632812 120.00390625 C-85.74598263 123.60310422 -85.77698837 127.20171851 -85.80859375 130.80078125 C-85.8151294 133.11327788 -85.82037766 135.42577857 -85.82421875 137.73828125 C-85.83656555 138.80123413 -85.84891235 139.86418701 -85.8616333 140.95935059 C-85.81593591 156.6013522 -80.8127503 170.53223689 -69.91015625 181.890625 C-58.02368528 192.98851133 -45.04850414 196.68010563 -29.12109375 196.421875 C-16.5947166 195.9092932 -4.08256496 189.19787914 4.50390625 180.14453125 C11.9536084 171.16627251 17.56530663 160.26333694 17.6809082 148.44897461 C17.69374344 147.30355698 17.70657867 146.15813934 17.71980286 144.97801208 C17.72718979 143.74261185 17.73457672 142.50721161 17.7421875 141.234375 C17.75429512 139.31764732 17.75429512 139.31764732 17.76664734 137.36219788 C17.78165261 134.65463395 17.79149868 131.94709599 17.79907227 129.23950195 C17.81008421 125.7989265 17.84443073 122.35900718 17.88424397 118.91866207 C17.91695506 115.60726187 17.92121056 112.29592409 17.9296875 108.984375 C17.95594963 107.15252907 17.95594963 107.15252907 17.98274231 105.28367615 C17.94863753 91.67375594 13.27503151 81.04791876 3.94140625 71.20703125 C-1.60883274 65.96648968 -1.60883274 65.96648968 -8.12109375 68.45703125 Z M92.50390625 135.14453125 C87.01880621 142.32871952 83.63539989 149.50578171 81.48828125 158.26953125 C78.80447409 168.83435945 75.16468589 178.78288636 70.81640625 188.76953125 C69.8324934 191.05302369 68.84938085 193.33686118 67.8671875 195.62109375 C67.43704346 196.61189941 67.00689941 197.60270508 66.5637207 198.62353516 C63.47392696 205.97327259 63.33497815 213.86559483 66.06640625 221.39453125 C69.88024348 229.67334866 75.08296197 234.46756376 83.26953125 238.33203125 C85.5775501 239.31540278 85.5775501 239.31540278 88.50390625 239.14453125 C88.3438208 238.07485107 88.18373535 237.0051709 88.01879883 235.90307617 C87.32049976 230.27994724 87.30366475 224.66780103 87.265625 219.0078125 C87.25351738 217.27315987 87.25351738 217.27315987 87.24116516 215.50346375 C87.22738377 213.06360344 87.21663526 210.62372434 87.20874023 208.18383789 C87.19722561 205.70819379 87.17678225 203.23257441 87.1472168 200.75708008 C87.10424521 197.15298845 87.08833101 193.54962948 87.078125 189.9453125 C87.06061691 188.85632156 87.04310883 187.76733063 87.02507019 186.64533997 C87.06042522 173.90408105 91.03217193 160.72344619 99.421875 150.8984375 C102.8148197 148.0402158 106.16674077 147.84107769 110.50390625 148.14453125 C113.18749217 149.36434303 115.13968435 150.4791674 117.50390625 152.14453125 C119.07554748 153.1832752 120.65990549 154.20293628 122.25390625 155.20703125 C122.99125 155.69300781 123.72859375 156.17898437 124.48828125 156.6796875 C133.71407539 161.16112895 143.01700314 161.62358626 153.12890625 161.76953125 C176.74824301 162.25353405 176.74824301 162.25353405 181.50390625 166.14453125 C184.9414719 171.42373093 183.83153591 178.15819424 183.81640625 184.20703125 C183.83251953 185.49931641 183.84863281 186.79160156 183.86523438 188.12304688 C183.86587891 189.35861328 183.86652344 190.59417969 183.8671875 191.8671875 C183.87016846 192.99906494 183.87314941 194.13094238 183.8762207 195.29711914 C183.50390625 198.14453125 183.50390625 198.14453125 182.19995117 200.01342773 C179.34242584 201.91913018 176.8179195 201.4996041 173.50390625 201.14453125 C171.26280083 199.52622543 170.59252697 198.60945224 170.0715332 195.8762207 C170.04534912 195.012146 170.01916504 194.14807129 169.9921875 193.2578125 C169.95673828 192.32001953 169.92128906 191.38222656 169.88476562 190.41601562 C169.86220703 189.43955078 169.83964844 188.46308594 169.81640625 187.45703125 C169.78224609 186.46896484 169.74808594 185.48089844 169.71289062 184.46289062 C169.63040087 182.02355072 169.56125557 179.58457062 169.50390625 177.14453125 C168.61832031 177.13518555 167.73273438 177.12583984 166.8203125 177.11621094 C127.64020531 176.59639162 127.64020531 176.59639162 112.640625 167.31640625 C110.47167382 165.90409507 110.47167382 165.90409507 107.50390625 166.14453125 C106.85395328 167.5593126 106.20911903 168.97644612 105.56640625 170.39453125 C105.20675781 171.1834375 104.84710938 171.97234375 104.4765625 172.78515625 C102.89151052 176.6300213 102.37408061 179.96683311 102.3269043 184.12158203 C102.31406906 185.11006134 102.30123383 186.09854065 102.28800964 187.11697388 C102.28062271 188.18052094 102.27323578 189.24406799 102.265625 190.33984375 C102.25755325 191.44246552 102.24948151 192.54508728 102.24116516 193.68112183 C102.22733795 196.01623977 102.21660971 198.35137781 102.20874023 200.68652344 C102.19723592 203.06451373 102.17680893 205.44247851 102.1472168 207.8203125 C102.104356 211.26450067 102.08834338 214.70792132 102.078125 218.15234375 C102.06061691 219.20374542 102.04310883 220.25514709 102.02507019 221.33840942 C102.0553809 231.77562306 105.10124041 239.59197749 112.2890625 247.16796875 C115.71138857 250.22210806 119.3350623 252.27600986 123.50390625 254.14453125 C124.43203125 254.57765625 125.36015625 255.01078125 126.31640625 255.45703125 C135.45464335 257.42802357 144.24937059 256.63384012 152.50390625 252.14453125 C162.72349059 244.84482815 167.35090265 236.92677116 169.6328125 224.74609375 C170.67643132 221.629277 171.62485099 220.6761676 174.50390625 219.14453125 C180.83117898 219.47180398 180.83117898 219.47180398 183.50390625 222.14453125 C184.04949128 227.80382001 183.70473099 233.59071685 182.50390625 239.14453125 C190.04330383 238.57907643 195.31986215 234.69826587 200.31640625 229.26953125 C205.83569851 222.45232323 207.44726782 216.71988353 207.32421875 207.921875 C206.28605301 199.28244847 201.87292558 191.20685606 198.30078125 183.37890625 C194.5436527 175.14500963 191.53251138 166.99176271 189.62890625 158.14453125 C186.14237871 143.39182332 177.43500559 131.24769669 164.50390625 123.14453125 C140.14521165 108.66992495 111.27691156 114.26614217 92.50390625 135.14453125 Z M-221.55859375 124.51953125 C-223.40350073 125.29852083 -225.24855203 126.07716869 -227.09375 126.85546875 C-227.98698975 127.23759521 -228.88022949 127.61972168 -229.80053711 128.01342773 C-233.2790724 129.47308302 -236.79455057 130.82987632 -240.32080078 132.16967773 C-248.75040542 135.94738944 -252.3733688 143.22366887 -255.87109375 151.33203125 C-257.43230719 160.8554332 -255.4630232 170.78729405 -253.49609375 180.14453125 C-251.51609375 180.14453125 -249.53609375 180.14453125 -247.49609375 180.14453125 C-247.20476562 179.09394531 -246.9134375 178.04335937 -246.61328125 176.9609375 C-244.31747076 168.98966328 -242.12283193 161.49730016 -236.49609375 155.14453125 C-232.84312124 153.31804499 -229.40021317 153.36814387 -225.49609375 154.14453125 C-222.72216829 155.60225738 -220.12625377 157.2110672 -217.51098633 158.93383789 C-202.91114032 168.52233388 -188.3814491 169.43774759 -171.3515625 169.62304688 C-170.15402344 169.64947266 -168.95648438 169.67589844 -167.72265625 169.703125 C-166.10738037 169.72330688 -166.10738037 169.72330688 -164.45947266 169.74389648 C-161.11201274 170.19645718 -159.21211342 171.17018336 -156.49609375 173.14453125 C-155.07361192 175.41176338 -154.40853741 177.59929367 -153.49609375 180.14453125 C-151.51609375 180.14453125 -149.53609375 180.14453125 -147.49609375 180.14453125 C-144.58855928 167.412344 -146.66913267 154.09426277 -152.87890625 142.6484375 C-160.68703162 130.55904531 -171.42553715 122.63496025 -185.37109375 119.14453125 C-198.33303324 116.71808122 -209.59232891 119.344016 -221.55859375 124.51953125 Z M33.50390625 119.14453125 C33.50390625 126.07453125 33.50390625 133.00453125 33.50390625 140.14453125 C38.23822359 139.19766778 39.75777013 138.76842477 42.61328125 135.02734375 C44.33839439 131.38039404 43.7998878 127.86959298 42.50390625 124.14453125 C39.5158412 120.91419066 37.80978239 120.22100029 33.50390625 119.14453125 Z M-107.49609375 122.14453125 C-109.74912191 124.63895528 -111.30203527 126.74850792 -111.49609375 130.14453125 C-110.22925572 134.15618502 -109.32226075 136.5198684 -105.93359375 139.08203125 C-103.63369608 140.27772639 -103.63369608 140.27772639 -101.49609375 140.14453125 C-101.49609375 133.21453125 -101.49609375 126.28453125 -101.49609375 119.14453125 C-103.74182664 119.14453125 -105.71574471 120.95763189 -107.49609375 122.14453125 Z M-228.49609375 171.14453125 C-231.37560221 177.62903347 -231.9508731 183.02148593 -231.9296875 190.07421875 C-231.93492935 191.10459259 -231.9401712 192.13496643 -231.9455719 193.19656372 C-231.95196767 195.36654768 -231.95068697 197.53656642 -231.94213867 199.70654297 C-231.93363661 203.00291551 -231.96241327 206.29754854 -231.99414062 209.59375 C-231.99575324 211.71223907 -231.99517396 213.83073117 -231.9921875 215.94921875 C-232.00342148 216.92245087 -232.01465546 217.89568298 -232.02622986 218.89840698 C-231.92994318 228.48934563 -229.11672987 236.36061288 -222.484375 243.390625 C-215.89463494 249.20357841 -207.51894464 252.68179134 -198.6640625 252.390625 C-188.1383045 251.19580923 -180.35120604 246.13074964 -173.74609375 238 C-168.77660094 230.62340911 -168.34124016 222.09064872 -168.3984375 213.46484375 C-168.39985245 212.65207977 -168.4012674 211.8393158 -168.40272522 211.00192261 C-168.4082904 208.42442024 -168.42083635 205.84700705 -168.43359375 203.26953125 C-168.43861325 201.51432418 -168.44317537 199.75911573 -168.44726562 198.00390625 C-168.45824841 193.71741393 -168.47548883 189.43098768 -168.49609375 185.14453125 C-169.77742188 185.09554687 -171.05875 185.0465625 -172.37890625 184.99609375 C-191.22633292 184.21200278 -207.58993906 182.14889625 -224.49609375 173.14453125 C-225.82759811 172.47421912 -227.16034062 171.80633621 -228.49609375 171.14453125 Z M-255.24609375 197.76953125 C-257.99381381 200.66990243 -258.49609375 202.16921247 -258.49609375 206.14453125 C-257.2311439 209.07388879 -256.20214318 210.6662397 -253.55859375 212.45703125 C-251.22598253 213.35534976 -251.22598253 213.35534976 -247.49609375 213.14453125 C-247.49609375 207.53453125 -247.49609375 201.92453125 -247.49609375 196.14453125 C-252.31102716 195.72059016 -252.31102716 195.72059016 -255.24609375 197.76953125 Z M-152.49609375 196.14453125 C-152.49609375 201.75453125 -152.49609375 207.36453125 -152.49609375 213.14453125 C-146.72864135 212.72212706 -146.72864135 212.72212706 -144.05859375 210.01953125 C-142.22209283 207.16804377 -142.22209283 207.16804377 -142.43359375 203.58203125 C-143.69003497 199.51707437 -144.85023247 198.26421804 -148.49609375 196.14453125 C-149.81609375 196.14453125 -151.13609375 196.14453125 -152.49609375 196.14453125 Z M-57.49609375 208.14453125 C-57.49609375 211.11453125 -57.49609375 214.08453125 -57.49609375 217.14453125 C-53.80361727 219.05202758 -50.09015789 220.91447998 -46.37109375 222.76953125 C-45.324375 223.3109375 -44.27765625 223.85234375 -43.19921875 224.41015625 C-42.18085938 224.91289062 -41.1625 225.415625 -40.11328125 225.93359375 C-39.18112793 226.40490723 -38.24897461 226.8762207 -37.28857422 227.36181641 C-32.25265219 228.77335391 -28.15857 226.11489528 -23.75390625 223.76171875 C-22.91601562 223.31699219 -22.078125 222.87226563 -21.21484375 222.4140625 C-20.35890625 221.95386719 -19.50296875 221.49367188 -18.62109375 221.01953125 C-17.74195313 220.55160156 -16.8628125 220.08367187 -15.95703125 219.6015625 C-13.80115104 218.45332195 -11.64762598 217.30089222 -9.49609375 216.14453125 C-9.49609375 213.50453125 -9.49609375 210.86453125 -9.49609375 208.14453125 C-10.2746875 208.36109375 -11.05328125 208.57765625 -11.85546875 208.80078125 C-27.11604034 212.59834284 -42.34343492 212.35917808 -57.49609375 208.14453125 Z M-73.55859375 233.64453125 C-74.47769531 234.47984375 -75.39679688 235.31515625 -76.34375 236.17578125 C-77.40916016 237.1503125 -77.40916016 237.1503125 -78.49609375 238.14453125 C-76.87860045 243.33484203 -73.64097338 247.21225711 -70.37109375 251.45703125 C-69.80777344 252.19759766 -69.24445313 252.93816406 -68.6640625 253.70117188 C-67.27975086 255.51954734 -65.89035149 257.33377799 -64.49609375 259.14453125 C-59.10216636 258.52787989 -54.21214092 257.26530329 -49.05859375 255.58203125 C-48.32705078 255.34806641 -47.59550781 255.11410156 -46.84179688 254.87304688 C-45.05829196 254.30185903 -43.27695792 253.72390002 -41.49609375 253.14453125 C-41.49609375 249.51453125 -41.49609375 245.88453125 -41.49609375 242.14453125 C-45.17931243 240.29059521 -48.86381986 238.43924933 -52.54956055 236.59033203 C-53.8041529 235.96051594 -55.0583859 235.32998352 -56.31225586 234.69873047 C-58.11087731 233.79337933 -59.91088625 232.89078628 -61.7109375 231.98828125 C-62.7949585 231.44365234 -63.87897949 230.89902344 -64.99584961 230.33789062 C-69.39279133 228.23924292 -70.0670334 230.46234967 -73.55859375 233.64453125 Z M-6.78515625 232.515625 C-7.80867188 233.00740234 -8.8321875 233.49917969 -9.88671875 234.00585938 C-10.9540625 234.52599609 -12.02140625 235.04613281 -13.12109375 235.58203125 C-14.73371094 236.35643555 -14.73371094 236.35643555 -16.37890625 237.14648438 C-21.24541956 239.17930148 -21.24541956 239.17930148 -25.49609375 242.14453125 C-25.56835877 243.99740627 -25.57990595 245.85287003 -25.55859375 247.70703125 C-25.54957031 248.71894531 -25.54054688 249.73085938 -25.53125 250.7734375 C-25.51964844 251.55589844 -25.50804687 252.33835937 -25.49609375 253.14453125 C-22.60485152 254.18033454 -19.70930061 255.19838145 -16.80859375 256.20703125 C-15.99197266 256.50158203 -15.17535156 256.79613281 -14.33398438 257.09960938 C-13.53798828 257.37353516 -12.74199219 257.64746094 -11.921875 257.9296875 C-10.82999878 258.31459351 -10.82999878 258.31459351 -9.71606445 258.70727539 C-6.91069148 259.25983483 -5.20342318 259.07652724 -2.49609375 258.14453125 C-0.55047525 256.297083 -0.55047525 256.297083 1.0546875 253.890625 C1.67021484 253.03662109 2.28574219 252.18261719 2.91992188 251.30273438 C3.54576172 250.40490234 4.17160156 249.50707031 4.81640625 248.58203125 C5.46158203 247.68033203 6.10675781 246.77863281 6.77148438 245.84960938 C8.36176273 243.62321968 9.93838781 241.38836706 11.50390625 239.14453125 C6.7603822 234.35060798 6.7603822 234.35060798 1.50390625 230.14453125 C-1.97412167 230.14453125 -3.66650188 231.01020576 -6.78515625 232.515625 Z M-211.49609375 267.14453125 C-211.75654298 274.05576104 -211.75654298 274.05576104 -208.49609375 279.14453125 C-205.62880463 281.46936027 -204.20619824 282.15932509 -200.49609375 282.08203125 C-197.07106767 281.0117106 -195.0948682 279.5948043 -192.49609375 277.14453125 C-190.89980896 274.32463966 -190.89980896 274.32463966 -191.49609375 267.14453125 C-198.09609375 267.14453125 -204.69609375 267.14453125 -211.49609375 267.14453125 Z M126.50390625 271.14453125 C126.03102707 277.41525036 126.03102707 277.41525036 128.12890625 283.14453125 C131.09060444 285.63859288 132.62804969 286.22204838 136.50390625 286.14453125 C140.74598765 283.89731984 140.74598765 283.89731984 143.50390625 280.14453125 C143.57341166 278.60429129 143.58842982 277.06118137 143.56640625 275.51953125 C143.54578125 274.07578125 143.52515625 272.63203125 143.50390625 271.14453125 C137.89390625 271.14453125 132.28390625 271.14453125 126.50390625 271.14453125 Z " fill="#000000" transform="translate(289.49609375,77.85546875)"/>
<path d="M0 0 C2.3125 1.0625 2.3125 1.0625 4 3 C5.99796875 8.86903319 4.20361507 13.10680607 2.0078125 18.7421875 C0.06148351 25.03380911 -0.04328967 31.30877348 -0.140625 37.86328125 C-0.15996094 39.07951172 -0.17929688 40.29574219 -0.19921875 41.54882812 C-0.23333422 44.07730952 -0.25132198 46.60605541 -0.25390625 49.13476562 C-0.27839844 50.34455078 -0.30289062 51.55433594 -0.328125 52.80078125 C-0.3374707 53.89559814 -0.34681641 54.99041504 -0.35644531 56.1184082 C-1 59 -1 59 -3.31542969 61.39135742 C-6 63 -6 63 -9.625 62.9375 C-14.21630908 61.66213637 -14.21630908 61.66213637 -16 59 C-16.31141226 56.13726516 -16.44414657 53.49713443 -16.43359375 50.6328125 C-16.44145653 49.38695877 -16.44145653 49.38695877 -16.44947815 48.11593628 C-16.4559061 46.3523673 -16.45455136 44.58875549 -16.44604492 42.82519531 C-16.43763958 40.16910602 -16.46611107 37.51524583 -16.49804688 34.859375 C-16.54746869 23.08092359 -15.86635761 12.07440109 -9 2 C-5.51131349 -0.32579101 -4.10281481 -0.41865457 0 0 Z " fill="#000000" transform="translate(16,378)"/>
<path d="M0 0 C0.66 -0.00128906 1.32 -0.00257813 2 -0.00390625 C5.10318265 0.87492477 6.07944929 1.92576182 8 4.5625 C8.62522314 8.06630812 8.58411287 11.54207173 8.56640625 15.09375 C8.57260483 16.12181763 8.57880341 17.14988525 8.58518982 18.20910645 C8.59228869 20.38109388 8.58911285 22.55313573 8.57641602 24.72509766 C8.5625487 28.05082128 8.59662367 31.37373274 8.63476562 34.69921875 C8.6357168 36.80989652 8.63385811 38.92057782 8.62890625 41.03125 C8.64216446 42.02612427 8.65542267 43.02099854 8.66908264 44.04602051 C8.57607033 50.9312485 8.57607033 50.9312485 5.59399414 54.19897461 C2.95929085 55.58389864 1.77944033 56.04073362 -1.125 55.625 C-2.11886719 55.51865234 -2.11886719 55.51865234 -3.1328125 55.41015625 C-6.06716445 54.07803413 -6.65453825 52.48935094 -8 49.5625 C-8.45108178 46.25007112 -8.44423786 42.96421874 -8.43359375 39.625 C-8.4388356 38.66730713 -8.44407745 37.70961426 -8.44947815 36.72290039 C-8.45588867 34.70232104 -8.45457394 32.68170433 -8.44604492 30.66113281 C-8.43752866 27.57289147 -8.46632024 24.48649655 -8.49804688 21.3984375 C-8.4996589 19.43229222 -8.49908134 17.46614367 -8.49609375 15.5 C-8.50732773 14.57904541 -8.51856171 13.65809082 -8.53013611 12.70922852 C-8.48405319 8.46297054 -8.37151995 6.16320403 -6.09399414 2.48071289 C-3.83403443 0.41046649 -3.01341612 -0.10005483 0 0 Z " fill="#000000" transform="translate(328,385.4375)"/>
<path d="M0 0 C3.25245305 0.65773169 4.14765071 1.71953341 6.10546875 4.42578125 C6.72990036 7.92980542 6.68958212 11.40525228 6.671875 14.95703125 C6.67807358 15.98509888 6.68427216 17.0131665 6.69065857 18.0723877 C6.69775744 20.24437513 6.6945816 22.41641698 6.68188477 24.58837891 C6.66801745 27.91410253 6.70209242 31.23701399 6.74023438 34.5625 C6.74118555 36.67317777 6.73932686 38.78385907 6.734375 40.89453125 C6.74763321 41.88940552 6.76089142 42.88427979 6.77455139 43.90930176 C6.68197601 50.76218628 6.68197601 50.76218628 3.79272461 54.08789062 C0.1235156 55.91466135 -1.99405411 55.50924712 -5.89453125 54.42578125 C-7.95391341 52.84692159 -8.74024336 51.73435702 -9.89453125 49.42578125 C-9.99853404 48.06369953 -10.043134 46.69679964 -10.05566406 45.33081055 C-10.06527161 44.48620773 -10.07487915 43.64160492 -10.08477783 42.77140808 C-10.08902771 41.85684341 -10.09327759 40.94227875 -10.09765625 40 C-10.10335632 39.06025833 -10.1090564 38.12051666 -10.1149292 37.15229797 C-10.12438599 35.16086963 -10.13091587 33.16942559 -10.13476562 31.17797852 C-10.14445901 28.13595112 -10.17547097 25.09460276 -10.20703125 22.05273438 C-10.2135625 20.1184936 -10.21881249 18.18424798 -10.22265625 16.25 C-10.23500305 15.34150803 -10.24734985 14.43301605 -10.2600708 13.49699402 C-10.23087944 5.18965294 -8.82744008 0.48029224 0 0 Z " fill="#000000" transform="translate(184.89453125,385.57421875)"/>
</svg>
