<?xml version="1.0" encoding="UTF-8"?>
<svg version="1.1" xmlns="http://www.w3.org/2000/svg" width="512" height="512">
<path d="M0 0 C0.90195602 -0.00701431 1.80391205 -0.01402863 2.73320007 -0.02125549 C5.63208047 -0.03868232 8.53075663 -0.04510887 11.4296875 -0.046875 C12.41955658 -0.04754974 13.40942566 -0.04822449 14.42929077 -0.04891968 C28.9391862 -0.03318338 43.02662729 0.4161495 57.3046875 3.203125 C58.65022705 3.44458252 58.65022705 3.44458252 60.02294922 3.69091797 C107.38849506 12.26166944 150.41487695 34.62760347 185.828125 66.94921875 C187.50720955 68.4773446 189.20049573 69.98998358 190.90625 71.48828125 C195.35387917 75.40515105 199.5404236 79.34150212 203.3515625 83.8828125 C204.85155681 85.66480574 206.3904222 87.41413678 207.9453125 89.1484375 C239.41812397 124.43709084 260.50422517 170.44949069 267.3046875 217.203125 C267.57744507 219.05236572 267.57744507 219.05236572 267.85571289 220.93896484 C269.45542856 232.56451194 269.6640889 244.10666243 269.6171875 255.828125 C269.61503235 256.79867828 269.6128772 257.76923157 269.61065674 258.76919556 C269.55962521 273.09622399 269.21678184 287.12669413 266.3046875 301.203125 C266.10601074 302.18087891 265.90733398 303.15863281 265.70263672 304.16601562 C255.57966828 352.54394719 233.6630551 396.52994594 199.3046875 432.203125 C198.67256348 432.86248047 198.04043945 433.52183594 197.38916016 434.20117188 C188.76594554 443.14859815 180.0422778 451.56229751 170.02294922 458.92919922 C168.27433068 460.22563166 166.55639947 461.55601218 164.83984375 462.89453125 C154.62500378 470.75964959 143.6735861 477.15383941 132.3046875 483.203125 C131.41281738 483.67782227 130.52094727 484.15251953 129.60205078 484.64160156 C106.66701665 496.64630201 81.80186181 504.8056477 56.3046875 509.203125 C55.42409668 509.36393555 54.54350586 509.52474609 53.63623047 509.69042969 C26.45235298 514.49603588 -3.57969874 514.27094665 -30.6953125 509.203125 C-31.63052734 509.04215332 -32.56574219 508.88118164 -33.52929688 508.71533203 C-58.57751297 504.37236185 -84.2967127 496.56957636 -106.28125 483.53125 C-107.02552246 483.10005859 -107.76979492 482.66886719 -108.53662109 482.22460938 C-109.91721667 481.4114289 -111.2797284 480.56618908 -112.61572266 479.68164062 C-115.5403434 477.95177462 -117.66911275 477.05857285 -121.09849548 477.54164124 C-122.00177078 477.78837082 -122.90504608 478.0351004 -123.83569336 478.28930664 C-124.90093231 478.57764374 -125.96617126 478.86598083 -127.06369019 479.16305542 C-128.26212555 479.50627838 -129.46056091 479.84950134 -130.6953125 480.203125 C-131.34291157 480.38823261 -131.99051064 480.57334023 -132.65773392 480.76405716 C-137.99451685 482.2959915 -143.31583973 483.87872907 -148.63671875 485.46484375 C-150.37085859 485.9797037 -152.10506724 486.49433194 -153.83934021 487.00874329 C-158.39157556 488.35966161 -162.94289703 489.71363312 -167.49401855 491.06829834 C-172.033891 492.41907131 -176.57459653 493.76703703 -181.11523438 495.11523438 C-182.90083244 495.64558456 -184.68642613 496.17594947 -186.47201538 496.70632935 C-189.97679608 497.74733071 -193.48171924 498.78785067 -196.98672485 499.82809448 C-204.04496502 501.92371924 -211.10282573 504.02008654 -218.15118122 506.14876461 C-220.09485046 506.73559853 -222.03922647 507.32008998 -223.98362732 507.90449524 C-226.27492541 508.5936281 -228.56495709 509.28699258 -230.85340881 509.98551941 C-232.33930763 510.43125053 -232.33930763 510.43125053 -233.85522461 510.88598633 C-234.70169052 511.14277664 -235.54815643 511.39956696 -236.42027283 511.66413879 C-238.6953125 512.203125 -238.6953125 512.203125 -242.6953125 512.203125 C-242.08734657 507.23367088 -241.073146 502.65150774 -239.64501953 497.83544922 C-239.4382106 497.13308136 -239.23140167 496.4307135 -239.01832581 495.70706177 C-238.33458246 493.38923956 -237.64389308 491.07354993 -236.953125 488.7578125 C-236.46481893 487.10780088 -235.97694338 485.4576618 -235.48947144 483.80740356 C-234.19929735 479.44407472 -232.90321511 475.08252242 -231.605896 470.72131348 C-230.58211502 467.27668143 -229.56199322 463.83097235 -228.54230118 460.38512802 C-227.78750362 457.8345761 -227.03196816 455.28424368 -226.27630615 452.73394775 C-225.26914339 449.3345434 -224.26410931 445.93451903 -223.26031494 442.53411865 C-220.96058098 434.75571514 -218.63989337 426.98584229 -216.23130226 419.24034691 C-215.16866065 415.8196214 -214.11824965 412.39519369 -213.0685997 408.9704628 C-212.56930159 407.3545448 -212.06371259 405.74055559 -211.55148697 404.12868881 C-210.84528022 401.90558173 -210.16056687 399.67686084 -209.47998047 397.44580078 C-209.08583954 396.18728302 -208.69169861 394.92876526 -208.28561401 393.6321106 C-207.39564624 388.46240225 -209.20578155 384.76593459 -211.7265625 380.33984375 C-232.807376 342.3745204 -243.19752896 299.90156723 -243.0078125 256.578125 C-243.00598969 255.70705109 -243.00416687 254.83597717 -243.00228882 253.93850708 C-242.95282652 239.83885175 -242.23313903 226.10014101 -239.6953125 212.203125 C-239.5396582 211.30062012 -239.38400391 210.39811523 -239.22363281 209.46826172 C-232.79059043 173.05929628 -218.02946411 138.32839132 -196.6953125 108.203125 C-196.23930664 107.55633789 -195.78330078 106.90955078 -195.31347656 106.24316406 C-187.8749347 95.78223594 -179.64800916 86.38519419 -170.6953125 77.203125 C-170.08252441 76.56455566 -169.46973633 75.92598633 -168.83837891 75.26806641 C-160.34174124 66.41712537 -151.56903026 58.48206248 -141.6953125 51.203125 C-141.15116699 50.79288086 -140.60702148 50.38263672 -140.04638672 49.95996094 C-100.54697804 20.18511572 -49.8701354 0.26004592 0 0 Z M-114.6953125 70.203125 C-115.64792969 70.88503906 -116.60054688 71.56695312 -117.58203125 72.26953125 C-135.6173213 85.44825953 -152.19453308 100.63603129 -165.51806641 118.61572266 C-166.60870606 120.0863446 -167.71954411 121.54192865 -168.83203125 122.99609375 C-174.38643752 130.38378146 -179.09840923 138.19958805 -183.6953125 146.203125 C-184.035625 146.78513672 -184.3759375 147.36714844 -184.7265625 147.96679688 C-213.90704976 198.17775249 -218.7352425 260.70294795 -204.34375 316.21484375 C-200.69879715 329.70202794 -195.8514762 342.31959501 -189.8828125 354.953125 C-189.37758057 356.02691406 -188.87234863 357.10070312 -188.35180664 358.20703125 C-185.70326737 363.65785529 -183.02951539 368.53956134 -179.01611328 373.10253906 C-173.48924058 380.79972468 -173.48924058 380.79972468 -173.9125061 385.73623657 C-174.61361267 388.69399156 -175.48228342 391.54522604 -176.4296875 394.43359375 C-176.75941055 395.51738815 -177.08913361 396.60118256 -177.42884827 397.71781921 C-178.13463369 400.03217056 -178.85219138 402.34295914 -179.58047485 404.65032959 C-181.05250159 409.34142505 -182.44054432 414.05568995 -183.83171082 418.77127075 C-185.94417246 425.92271787 -188.09271388 433.06348488 -190.24389648 440.20336914 C-191.31454591 443.76045942 -192.37846963 447.31950492 -193.44140625 450.87890625 C-193.76942734 451.96101883 -194.09744843 453.04313141 -194.43540955 454.15803528 C-194.73314774 455.15816147 -195.03088593 456.15828766 -195.33764648 457.1887207 C-195.60077133 458.06373734 -195.86389618 458.93875397 -196.13499451 459.84028625 C-196.84913827 462.44707445 -196.84913827 462.44707445 -196.6953125 466.203125 C-191.67172908 465.60910561 -187.04885311 464.52202009 -182.23803711 462.94311523 C-180.76760932 462.47183631 -179.29705816 462.00094216 -177.82640076 461.53038025 C-177.05651762 461.28228041 -176.28663448 461.03418056 -175.49342155 460.77856255 C-170.51006428 459.1834745 -165.50770921 457.64863127 -160.50940609 456.10116482 C-156.13380216 454.74271174 -151.7662114 453.36483763 -147.41040039 451.9440918 C-143.17616173 450.56431055 -138.92772537 449.24104606 -134.66467476 447.95317268 C-133.05387612 447.45585132 -131.44901448 446.9388172 -129.85127068 446.40102959 C-116.75113764 442.01051696 -116.75113764 442.01051696 -110.68797302 444.63554382 C-107.13110883 446.51078825 -103.93429171 448.82462432 -100.6953125 451.203125 C-98.87173662 452.26160917 -97.03458801 453.29765214 -95.17578125 454.29296875 C-93.87979004 454.99764282 -93.87979004 454.99764282 -92.55761719 455.71655273 C-68.58727614 468.47841832 -42.60947603 476.64900425 -15.6953125 480.203125 C-14.6431958 480.34669434 -14.6431958 480.34669434 -13.56982422 480.49316406 C8.09431071 483.06794304 31.95259517 482.58132669 53.3046875 478.203125 C54.28759766 478.00444824 55.27050781 477.80577148 56.28320312 477.60107422 C97.32051095 469.05696849 132.84489094 450.66818179 164.3046875 423.203125 C164.8095166 422.76291016 165.3143457 422.32269531 165.83447266 421.86914062 C171.79099633 416.64473638 177.23918421 411.28596786 182.3046875 405.203125 C183.14773438 404.23632812 183.99078125 403.26953125 184.859375 402.2734375 C225.49211748 355.54364433 241.59476291 296.28078751 238.3046875 235.203125 C237.66911351 226.41349139 236.21193837 217.7990749 234.3046875 209.203125 C234.12276855 208.35927246 233.94084961 207.51541992 233.75341797 206.64599609 C226.71678646 174.93399188 212.55418827 144.59709353 192.3046875 119.203125 C191.59957031 118.3059375 190.89445312 117.40875 190.16796875 116.484375 C155.72107476 73.44121841 108.31267634 45.2027154 54.3046875 34.203125 C53.49193359 34.02523437 52.67917969 33.84734375 51.84179688 33.6640625 C-3.83288932 21.76412957 -69.03638129 36.729036 -114.6953125 70.203125 Z " fill="#000000" transform="translate(242.6953125,-0.203125)"/>
<path d="M0 0 C5.03280727 3.86977454 9.4444988 8.4092514 13.9168396 12.89855957 C14.98783506 13.96498135 16.05919747 15.03103471 17.13090515 16.09674072 C19.36382838 18.32078276 21.59106306 20.55033369 23.81454468 22.78381348 C26.64349098 25.62424799 29.48798688 28.44850987 32.3372221 31.26857376 C34.55014008 33.46301645 36.75353324 35.66683772 38.95438576 37.87337494 C39.99854635 38.91768734 41.0457511 39.95896641 42.09622765 40.99692535 C51.5734517 50.37700681 58.90969376 59.17370799 59.78012085 72.88293457 C59.26272612 86.8525923 51.82535489 95.10713079 42.06210327 104.39172363 C36.68019737 109.55028404 33.90439029 113.83487754 33.4246521 121.41027832 C33.94781306 133.98551771 49.73675902 145.27927851 58.13876343 153.51794434 C61.82950027 157.15501219 65.28891648 160.9153852 68.67709351 164.83459473 C72.11776135 168.75396418 75.71168079 172.51536868 79.34262085 176.25793457 C80.45733765 177.4538623 80.45733765 177.4538623 81.59457397 178.6739502 C86.67649027 183.87842778 91.20981035 186.97286932 98.53012085 187.94543457 C107.86757515 187.63840355 112.4852146 183.18927063 118.6746521 176.69543457 C125.88223945 169.22276958 133.96982058 162.66769651 144.67855835 161.64465332 C160.10808111 161.58861389 169.08652345 168.14296664 179.86671448 178.83953857 C180.8838801 179.85875611 181.9005771 180.87844152 182.9168396 181.89855957 C183.98783506 182.96498135 185.05919747 184.03103471 186.13090515 185.09674072 C188.36382838 187.32078276 190.59106306 189.55033369 192.81454468 191.78381348 C195.64349098 194.62424799 198.48798688 197.44850987 201.3372221 200.26857376 C203.55014008 202.46301645 205.75353324 204.66683772 207.95438576 206.87337494 C208.99854635 207.91768734 210.0457511 208.95896641 211.09622765 209.99692535 C221.00187163 219.80103538 227.98174536 228.58153471 228.53012085 242.94543457 C227.8075598 255.28184276 220.53297907 263.70145694 212.09262085 272.07043457 C211.20171753 272.95408691 210.31081421 273.83773926 209.39291382 274.74816895 C202.61664692 281.27662785 196.53410968 285.89414228 187.53012085 288.94543457 C186.39445679 289.34375488 185.25879272 289.7420752 184.0887146 290.15246582 C144.69013042 302.61034216 99.48209373 292.69179518 62.53012085 276.94543457 C61.79680542 276.63525391 61.06348999 276.32507324 60.30795288 276.00549316 C34.57241579 264.94757436 11.50023043 248.49321555 -8.46987915 228.94543457 C-9.13761353 228.31637207 -9.8053479 227.68730957 -10.49331665 227.03918457 C-46.37273863 192.62091552 -71.95125809 136.45234546 -73.57778931 86.64074707 C-73.6400679 82.82504417 -73.65548243 79.01162707 -73.65737915 75.19543457 C-73.66962524 73.91410645 -73.68187134 72.63277832 -73.69448853 71.31262207 C-73.73361273 45.59497502 -67.23385797 26.39754457 -49.46987915 7.94543457 C-48.78796509 7.17715332 -48.10605103 6.40887207 -47.4034729 5.61730957 C-34.29457559 -8.72311254 -15.8101557 -10.84215888 0 0 Z M-21.46987915 23.94543457 C-34.93164829 36.52026431 -42.17561543 47.60595017 -42.9034729 66.71496582 C-42.92713025 69.06250323 -42.92771898 71.41036607 -42.90737915 73.75793457 C-42.89908081 75.0162207 -42.89078247 76.27450684 -42.88223267 77.57092285 C-42.39168973 105.24732046 -34.67461643 131.25137968 -22.46987915 155.94543457 C-22.12811646 156.64136719 -21.78635376 157.3372998 -21.43423462 158.05432129 C-10.8096063 179.44371713 4.95670609 200.76583314 23.53012085 215.94543457 C24.02544312 216.36373535 24.52076538 216.78203613 25.03109741 217.2130127 C62.21662263 248.61218196 109.69449097 266.33959038 158.53012085 263.94543457 C171.78090608 262.72038783 181.2711406 258.54031449 190.71762085 249.38293457 C191.30752808 248.81655273 191.8974353 248.2501709 192.50521851 247.66662598 C194.34963092 245.84737467 194.34963092 245.84737467 196.53012085 242.94543457 C196.3639486 238.96791204 193.90689505 236.95945585 191.19393921 234.26867676 C190.27306015 233.34802429 189.35218109 232.42737183 188.40339661 231.4788208 C187.39241181 230.48315538 186.38126395 229.4876555 185.3699646 228.49230957 C184.33940944 227.46735131 183.30951591 226.44172743 182.28025818 225.41546631 C179.57261493 222.7192644 176.85608313 220.03219385 174.13760376 217.34692383 C171.36393112 214.60396728 168.59875656 211.85247333 165.83285522 209.10168457 C160.40689341 203.70787437 154.97151342 198.32368223 149.53012085 192.94543457 C145.8691172 194.6500924 143.68345323 196.67812831 140.90512085 199.63293457 C129.06791609 211.69643883 115.5881798 218.74501351 98.53012085 218.94543457 C83.24521013 217.7852546 69.25487595 211.75144533 58.96200562 200.1829834 C58.16234375 199.2397522 58.16234375 199.2397522 57.3465271 198.27746582 C53.44921118 193.78064207 49.27377155 189.61317023 45.03012085 185.44543457 C40.22864687 180.72985458 35.6156733 175.95951806 31.22738647 170.85656738 C28.48410991 167.76761903 25.49904559 164.93976411 22.53012085 162.07043457 C10.55708105 150.2521505 3.63135997 138.16030405 2.21762085 121.19543457 C2.95724042 100.77371647 13.0121428 88.50403041 27.17245483 75.20788574 C27.84449951 74.58297241 27.84449951 74.58297241 28.53012085 73.94543457 C26.46552033 70.22843605 24.19776482 67.36052106 21.1980896 64.35461426 C20.32708618 63.47730652 19.45608276 62.59999878 18.5586853 61.69610596 C17.61191849 60.75291812 16.66489075 59.80999214 15.71762085 58.86730957 C14.74231215 57.89065245 13.7673004 56.9136987 12.79257202 55.9364624 C10.75487168 53.89582191 8.71361889 51.8588218 6.66976929 49.82434082 C4.05015502 47.21615077 1.43966268 44.5990435 -1.16825867 41.97916794 C-3.17721126 39.96299265 -5.19089757 37.95159973 -7.20605469 35.9416275 C-8.17078471 34.97823126 -9.13403229 34.01334815 -10.09576416 33.04695892 C-11.43828721 31.69936085 -12.78790839 30.35884541 -14.1378479 29.01867676 C-14.90379272 28.25432312 -15.66973755 27.48996948 -16.45889282 26.70245361 C-18.44454388 24.7394061 -18.44454388 24.7394061 -21.46987915 23.94543457 Z " fill="#000000" transform="translate(194.46987915039063,99.0545654296875)"/>
</svg>
